<svg height="80" viewBox="0 0 160 80" width="160" xmlns="http://www.w3.org/2000/svg"><g fill="none"><path d="m9.94835498 37.6417903 35.69984012-35.69984007c1.2429794-1.24297943 3.2582472-1.24297943 4.5012267 0 1.2429794 1.24297942 1.2429794 3.25824725 0 4.50122667l-33.5607787 33.5607786 33.5794407 33.5794407c1.2369005 1.2369005 1.2369005 3.2423123 0 4.4792128-1.2369004 1.2369005-3.2423123 1.2369005-4.4792128 0l-35.5117022-35.5117022c-.1187252-.0892748-.23262804-.1879449-.34069338-.2960102-1.10846633-1.1084664-1.22842265-2.8311141-.35986896-4.0725117.10748618-.1556197.23048183-.3037612.36898695-.4422663.03369394-.0336939.06795815-.06647.10276157-.0983283z" fill="#fff"/><path d="m89.948355 37.6417903 35.69984-35.69984007c1.242979-1.24297943 3.258247-1.24297943 4.501227 0 1.242979 1.24297942 1.242979 3.25824725 0 4.50122667l-33.5607789 33.5607786 33.5794409 33.5794407c1.2369 1.2369005 1.2369 3.2423123 0 4.4792128-1.236901 1.2369005-3.242313 1.2369005-4.479213 0l-35.5117022-35.5117022c-.1187252-.0892748-.232628-.1879449-.3406934-.2960102-1.1084663-1.1084664-1.2284226-2.8311141-.3598689-4.0725117.1074861-.1556197.2304818-.3037612.3689869-.4422663.0336939-.0336939.0679582-.06647.1027616-.0983283z" fill="#000"/></g></svg>