<svg height="40" viewBox="0 0 80 40" width="80" xmlns="http://www.w3.org/2000/svg"><g fill="none"><path d="m19.9999989 17.8178747 16.3659427-16.36594275c.6025773-.60257729 1.5795481-.60257729 2.1821254 0 .6025773.6025773.6025773 1.57954811 0 2.18212541l-16.3659427 16.36594274 16.3659425 16.3659425c.6025773.6025773.6025773 1.5795482 0 2.1821254-.6025773.6025773-1.5795481.6025773-2.1821254 0l-16.3659425-16.3659425-16.3659403 16.3659403c-.60257729.6025773-1.57954811.6025773-2.1821254 0s-.60257729-1.5795481 0-2.1821254l16.3659403-16.3659403-16.36594053-16.36594049c-.60257729-.60257729-.60257729-1.57954811 0-2.1821254s1.57954811-.60257729 2.1821254 0z" fill="#fff"/><path d="m59.9999989 17.8178747 16.3659427-16.36594275c.6025773-.60257729 1.5795481-.60257729 2.1821254 0 .6025773.6025773.6025773 1.57954811 0 2.18212541l-16.3659427 16.36594274 16.3659425 16.3659425c.6025773.6025773.6025773 1.5795482 0 2.1821254-.6025773.6025773-1.5795481.6025773-2.1821254 0l-16.3659425-16.3659425-16.3659403 16.3659403c-.6025773.6025773-1.5795481.6025773-2.1821254 0s-.6025773-1.5795481 0-2.1821254l16.3659403-16.3659403-16.3659405-16.36594049c-.6025773-.60257729-.6025773-1.57954811 0-2.1821254s1.5795481-.60257729 2.1821254 0z" fill="#000"/></g></svg>