<svg height="150" viewBox="0 0 150 150" width="150" xmlns="http://www.w3.org/2000/svg"><g fill="none"><g fill="#000" transform="translate(12 101)"><path d="m132.212045 22.0691663c.934919 0 1.692724.7398421 1.692724 1.6524205 0 .9126584-.757805 1.6524206-1.692724 1.6524206h-38.5193215c-.9348365 0-1.6927235-.7397622-1.6927235-1.6524206 0-.9126583.757887-1.6524205 1.6927235-1.6524205zm0-12.53409171c.934919 0 1.692724.73984211 1.692724 1.65242051 0 .9125785-.757805 1.6524206-1.692724 1.6524206h-38.5193215c-.9348365 0-1.6927235-.7398421-1.6927235-1.6524206 0-.9125784.757887-1.65242051 1.6927235-1.65242051zm0 25.06818341c.934919 0 1.692724.7397622 1.692724 1.6524205 0 .9126584-.757805 1.6524206-1.692724 1.6524206h-38.5193215c-.9348365 0-1.6927235-.7397622-1.6927235-1.6524206 0-.9126583.757887-1.6524205 1.6927235-1.6524205z"/><path d="m79.43 7.49c-.53-.53-1.38-.53-1.91 0l-14.56 14.56-14.56-14.56c-.53-.53-1.38-.53-1.91 0s-.53 1.38 0 1.91l14.56 14.56-14.56 14.56c-.53.53-.53 1.38 0 1.91.26.26.61.4.95.4s.69-.13.95-.4l14.56-14.56 14.56 14.56c.26.26.61.4.95.4.35 0 .69-.13.95-.4.53-.53.53-1.38 0-1.91l-14.54-14.56 14.56-14.56c.53-.53.53-1.38 0-1.91z"/><path d="m3.6688 23.9575 21.55-21.55c.53-.53.53-1.38 0-1.91s-1.38-.53-1.91 0l-22.51 22.51c-.53.53-.53 1.38 0 1.91l22.51 22.5c.26.26.61.4.95.4s.69-.13.95-.4c.53-.53.53-1.38 0-1.91z"/></g><g fill="#fff" transform="translate(12 51)"><path d="m132.212045 22.0691663c.934919 0 1.692724.7398421 1.692724 1.6524205 0 .9126584-.757805 1.6524206-1.692724 1.6524206h-38.5193215c-.9348365 0-1.6927235-.7397622-1.6927235-1.6524206 0-.9126583.757887-1.6524205 1.6927235-1.6524205zm0-12.53409171c.934919 0 1.692724.73984211 1.692724 1.65242051 0 .9125785-.757805 1.6524206-1.692724 1.6524206h-38.5193215c-.9348365 0-1.6927235-.7398421-1.6927235-1.6524206 0-.9125784.757887-1.65242051 1.6927235-1.65242051zm0 25.06818341c.934919 0 1.692724.7397622 1.692724 1.6524205 0 .9126584-.757805 1.6524206-1.692724 1.6524206h-38.5193215c-.9348365 0-1.6927235-.7397622-1.6927235-1.6524206 0-.9126583.757887-1.6524205 1.6927235-1.6524205z"/><path d="m79.43 7.49c-.53-.53-1.38-.53-1.91 0l-14.56 14.56-14.56-14.56c-.53-.53-1.38-.53-1.91 0s-.53 1.38 0 1.91l14.56 14.56-14.56 14.56c-.53.53-.53 1.38 0 1.91.26.26.61.4.95.4s.69-.13.95-.4l14.56-14.56 14.56 14.56c.26.26.61.4.95.4.35 0 .69-.13.95-.4.53-.53.53-1.38 0-1.91l-14.54-14.56 14.56-14.56c.53-.53.53-1.38 0-1.91z"/><path d="m3.6688 23.9575 21.55-21.55c.53-.53.53-1.38 0-1.91s-1.38-.53-1.91 0l-22.51 22.51c-.53.53-.53 1.38 0 1.91l22.51 22.5c.26.26.61.4.95.4s.69-.13.95-.4c.53-.53.53-1.38 0-1.91z"/></g><g fill="#46b281" transform="translate(12 1)"><path d="m132.212045 22.0691663c.934919 0 1.692724.7398421 1.692724 1.6524205 0 .9126584-.757805 1.6524206-1.692724 1.6524206h-38.5193215c-.9348365 0-1.6927235-.7397622-1.6927235-1.6524206 0-.9126583.757887-1.6524205 1.6927235-1.6524205zm0-12.53409171c.934919 0 1.692724.73984211 1.692724 1.65242051 0 .9125785-.757805 1.6524206-1.692724 1.6524206h-38.5193215c-.9348365 0-1.6927235-.7398421-1.6927235-1.6524206 0-.9125784.757887-1.65242051 1.6927235-1.65242051zm0 25.06818341c.934919 0 1.692724.7397622 1.692724 1.6524205 0 .9126584-.757805 1.6524206-1.692724 1.6524206h-38.5193215c-.9348365 0-1.6927235-.7397622-1.6927235-1.6524206 0-.9126583.757887-1.6524205 1.6927235-1.6524205z"/><path d="m79.43 7.49c-.53-.53-1.38-.53-1.91 0l-14.56 14.56-14.56-14.56c-.53-.53-1.38-.53-1.91 0s-.53 1.38 0 1.91l14.56 14.56-14.56 14.56c-.53.53-.53 1.38 0 1.91.26.26.61.4.95.4s.69-.13.95-.4l14.56-14.56 14.56 14.56c.26.26.61.4.95.4.35 0 .69-.13.95-.4.53-.53.53-1.38 0-1.91l-14.54-14.56 14.56-14.56c.53-.53.53-1.38 0-1.91z"/><path d="m3.6688 23.9575 21.55-21.55c.53-.53.53-1.38 0-1.91s-1.38-.53-1.91 0l-22.51 22.51c-.53.53-.53 1.38 0 1.91l22.51 22.5c.26.26.61.4.95.4s.69-.13.95-.4c.53-.53.53-1.38 0-1.91z"/></g></g></svg>