<svg height="30" viewBox="0 0 90 30" width="90" xmlns="http://www.w3.org/2000/svg"><g fill="#005baa"><path d="m82.6 5.4h-15.2c-1.045 0-1.8905.855-1.8905 1.9l-.0095 11.4c0 1.045.855 1.9 1.9 1.9h15.2c1.045 0 1.9-.855 1.9-1.9v-11.4c0-1.045-.855-1.9-1.9-1.9zm0 3.8-7.6 4.75-7.6-4.75v-1.9l7.6 4.75 7.6-4.75z"/><path d="m39.9188889 12.8572222c1.36 2.6727778 3.5511111 4.8544445 6.2238889 6.2238889l2.0777778-2.0777778c.255-.255.6327777-.34.9633333-.2266666 1.0577778.3494444 2.2005555.5383333 3.3716667.5383333.5194444 0 .9444444.425.9444444.9444444v3.2961112c0 .5194444-.425.9444444-.9444444.9444444-8.8683334 0-16.0555556-7.1872222-16.0555556-16.05555556 0-.51944444.425-.94444444.9444444-.94444444h3.3055556c.5194444 0 .9444444.425.9444444.94444444 0 1.18055556.1888889 2.31388889.5383334 3.37166667.1038889.33055559.0283333.69888889-.2361111.96333329z"/><path d="m15 4c4.6731787 0 8.4615385 3.84796334 8.4615385 8.4615385 0 6.1171282-7.7756629 13.5384615-8.4615385 13.5384615s-8.46153846-7.4213333-8.46153846-13.5384615c0-4.61357516 3.78835976-8.4615385 8.46153846-8.4615385zm0 12.6923077c2.1029304 0 3.8076923-1.7047619 3.8076923-3.8076923s-1.7047619-3.80769232-3.8076923-3.80769232-3.8076923 1.70476192-3.8076923 3.80769232 1.7047619 3.8076923 3.8076923 3.8076923z"/></g></svg>