<svg height="100" viewBox="0 0 100 100" width="100" xmlns="http://www.w3.org/2000/svg" xmlns:xlink="http://www.w3.org/1999/xlink"><defs><circle id="a" cx="31" cy="31" r="27"/><filter id="b" height="203.7%" width="203.7%" x="-51.9%" y="-37%"><feOffset dx="0" dy="8" in="SourceAlpha" result="shadowOffsetOuter1"/><feGaussianBlur in="shadowOffsetOuter1" result="shadowBlurOuter1" stdDeviation="8"/><feColorMatrix in="shadowBlurOuter1" type="matrix" values="0 0 0 0 0.441220238   0 0 0 0 0.441220238   0 0 0 0 0.441220238  0 0 0 0.5 0"/></filter></defs><g fill="none"><g transform="translate(19.5 15.5)"><use fill="#000" filter="url(#b)" xlink:href="#a"/><use fill="#fff" xlink:href="#a"/></g><circle cx="50" cy="46" fill="#fff" r="30.5"/><path d="m20.3777778 27.4097778-1.6235556-1.8142222c3.2840933-1.0973214 5.406316-4.2815475 5.1552222-7.735l-.6427777-9.60988893c-.0055735-4.23643648-3.4393395-7.66891019-7.6757778-7.67288889h-7.18177779c-4.21758351-.00486441-7.647176 3.39762178-7.67577778 7.61511111l-.64711111 9.66766671c-.25071806 3.4542377 1.87287038 6.6387284 5.15811111 7.735l-1.62211111 1.8098888-2.10744444 2.3501112c-.21498986.2293916-.28889276.5572227-.1931189.8566698.09577385.299447.34620338.523545.65440837.5856003s.62584685-.0476649.83004386-.2867146l1.81855556-2.0222222h14.75355553l1.8185556 2.0222222c.204197.2390497.5218389.3487699.8300438.2867146.308205-.0620553.5586346-.2861533.6544084-.5856003.0957739-.2994471.021871-.6272782-.1931189-.8566698zm-16.9707778-4.979c-1.12936961-1.1967178-1.70565517-2.811889-1.58888889-4.4532222l.64855556-9.72688893c.00398237-3.27980277 2.66264012-5.93716803 5.94244444-5.93955556h7.18177779c1.5839147.00534501 3.1006161.64067756 4.2154587 1.76581771 1.1148426 1.12514014 1.7362036 2.64761871 1.7269857 4.23151562l.6471111 9.66766666c.1099173 1.639878-.464584 3.251995-1.5868128 4.4527798s-2.6918521 1.8828812-4.3354094 1.883998h-8.51211109c-1.646009.0074213-3.21981417-.6752246-4.33911111-1.8821111zm2.77333333 4.7247778 1.04-1.1555556c.17766667.0115556.34666667.0534444.52722223.0534444h8.50777774c.1805556 0 .351-.0418888.5286667-.0534444l1.04 1.1555556zm1.28266667-10.8044445h9.0754444c1.730914-.0023869 3.133502-1.4049749 3.1358889-3.1358889v-2.2721111c-.0023869-1.73091394-1.4049749-3.13350196-3.1358889-3.13588888h-9.0754444c-1.73091395.00238692-3.13350197 1.40497494-3.13588889 3.13588888v2.2692222c.00238692 1.730914 1.40497494 3.133502 3.13588889 3.1358889zm-1.40111111-5.408c.00079617-.77428.62827554-1.40175937 1.40255555-1.40255554h9.07544446c.77428.00079617 1.4017594.62827554 1.4025555 1.40255554v2.2692222c-.0007961.7742801-.6282755 1.4017594-1.4025555 1.4025556h-9.0768889c-.77428002-.0007962-1.40175938-.6282755-1.40255556-1.4025556zm1.74922222 8.8963333c0 .7977447-.6466998 1.4444445-1.44444444 1.4444445s-1.44444445-.6466998-1.44444445-1.4444445c0-.7977446.64669981-1.4444444 1.44444445-1.4444444s1.44444444.6466998 1.44444444 1.4444444zm11.25655559 0c0 .7977447-.6466998 1.4444445-1.4444445 1.4444445-.7977446 0-1.4444444-.6466998-1.4444444-1.4444445 0-.7977446.6466998-1.4444444 1.4444444-1.4444444.3848394-.0026939.7548424.1482981 1.0279191.4194765.2730766.2711784.4266459.6401191.4266365 1.0249679zm-10.44911114-14.76655551c0-.47864678.38801988-.86666667.86666666-.86666667h5.02811108c.4786468 0 .8666667.38801989.8666667.86666667s-.3880199.86666667-.8666667.86666667h-5.02811108c-.47864678 0-.86666666-.38801989-.86666666-.86666667z" fill="#537f47" transform="translate(38.5 30.5)"/></g></svg>