<svg height="100" viewBox="0 0 100 100" width="100" xmlns="http://www.w3.org/2000/svg" xmlns:xlink="http://www.w3.org/1999/xlink"><defs><circle id="a" cx="31" cy="31" r="27"/><filter id="b" height="203.7%" width="203.7%" x="-51.9%" y="-37%"><feOffset dx="0" dy="8" in="SourceAlpha" result="shadowOffsetOuter1"/><feGaussianBlur in="shadowOffsetOuter1" result="shadowBlurOuter1" stdDeviation="8"/><feColorMatrix in="shadowBlurOuter1" type="matrix" values="0 0 0 0 0.441220238   0 0 0 0 0.441220238   0 0 0 0 0.441220238  0 0 0 0.5 0"/></filter></defs><g fill="none" fill-rule="evenodd"><g fill-rule="nonzero" transform="translate(19.5 15.5)"><use fill="#000" filter="url(#b)" xlink:href="#a"/><use fill="#fff" xlink:href="#a"/></g><circle cx="50" cy="46" fill="#fff" fill-rule="nonzero" r="30.5"/><g transform="translate(30.5 26.5)"><path d="m20 3.26530612c-6.5440233 0-11.83673469 5.23795919-11.83673469 11.71428568 0 8.7857143 11.83673469 21.7551021 11.83673469 21.7551021s11.8367347-12.9693878 11.8367347-21.7551021c0-6.47632649-5.2927114-11.71428568-11.8367347-11.71428568zm0 15.89795918c-2.3335277 0-4.2274052-1.8742857-4.2274052-4.1836735 0-2.3093877 1.8938775-4.1836734 4.2274052-4.1836734s4.2274052 1.8742857 4.2274052 4.1836734c0 2.3093878-1.8938775 4.1836735-4.2274052 4.1836735z" fill="#005baa" fill-rule="nonzero"/><path d="m0 0h40v40h-40z"/></g></g></svg>