<svg height="100" viewBox="0 0 660 100" width="660" xmlns="http://www.w3.org/2000/svg"><g fill="none" fill-rule="evenodd" stroke-width="2"><g transform="translate(557 3.5)"><g stroke="#005baa"><path d="m66 9h13.5l10.5 21"/><path d="m6 30 10.5-21h13.5"/><path d="m25.5 22.5c0-12.426 10.074-22.5 22.5-22.5s22.5 10.074 22.5 22.5"/></g><path d="m96 30h-96" stroke="#46b281" stroke-linejoin="round"/><g transform="translate(9 36)"><path d="m3 39v-28.5" stroke="#005baa"/><path d="m12 10.5v28.5" stroke="#005baa"/><path d="m0 0h15v6h-15z" stroke="#46b281"/><path d="m0 39h15v6h-15z" stroke="#005baa"/></g><g transform="translate(30 36)"><path d="m3 39v-28.5" stroke="#005baa"/><path d="m12 10.5v28.5" stroke="#005baa"/><path d="m0 0h15v6h-15z" stroke="#46b281"/><path d="m0 39h15v6h-15z" stroke="#005baa"/></g><g transform="translate(51 36)"><path d="m3 39v-28.5" stroke="#005baa"/><path d="m12 10.5v28.5" stroke="#005baa"/><path d="m0 0h15v6h-15z" stroke="#46b281"/><path d="m0 39h15v6h-15z" stroke="#005baa"/></g><g transform="translate(72 36)"><path d="m3 39v-28.5" stroke="#005baa"/><path d="m12 10.5v28.5" stroke="#005baa"/><path d="m0 0h15v6h-15z" stroke="#46b281"/><path d="m0 39h15v6h-15z" stroke="#005baa"/></g><path d="m96 36h-96" stroke="#46b281"/><g stroke="#005baa"><path d="m4.5 81h87"/><circle cx="48" cy="15" r="6"/><path d="m58.5 15h3.1"/><path d="m37.6 15h-3.1"/><path d="m1.5 87h93v6h-93z"/></g></g><g transform="translate(441.5 5.5)"><g stroke="#005baa"><path d="m36.1666667 24.1111111h34.4444444"/><g stroke-linecap="round"><path d="m93 48.2222222-5.1666667 5.1666667v3.4444444l-6.8888889 6.8888889"/><path d="m51.6666667 63.7222222 18.9444444 18.9444445s1.7222222 1.7222222 3.4444445 1.7222222c2.852 0 5.1666666-2.3146667 5.1666666-5.1666667 0-1.7222222-1.7222222-3.4444444-1.7222222-3.4444444l-18.9444444-18.9444445"/><path d="m68.8888889 80.9444444s1.7222222 1.7222223 1.7222222 3.4444445c0 2.852-2.3146667 5.1666667-5.1666667 5.1666667-1.7222222 0-3.4444444-1.7222223-3.4444444-1.7222223l-17.2222222-17.2222222"/><path d="m58.5555556 84.3888889s1.7222222 1.7222222 1.7222222 3.4444444c0 2.852-2.3146667 5.1666667-5.1666667 5.1666667-1.7222222 0-3.4444444-1.7222222-3.4444444-1.7222222l-31-31v-5.1666667l-6.8888889-6.8888889"/><path d="m29.2777778 70.6111111s-1.7222222 1.7222222-3.4444445 1.7222222c-2.852 0-5.1666666-2.3146666-5.1666666-5.1666666 0-1.7222223 1.7222222-3.4444445 1.7222222-3.4444445"/><path d="m36.1666667 77.5s-1.7222223 1.7222222-3.4444445 1.7222222c-2.852 0-5.1666666-2.3146666-5.1666666-5.1666666 0-1.7222223 1.7222222-3.4444445 1.7222222-3.4444445"/><path d="m43.0555556 84.3888889s-1.7222223 1.7222222-3.4444445 1.7222222c-2.852 0-5.1666667-2.3146667-5.1666667-5.1666667 0-1.7222222 1.7222223-3.4444444 1.7222223-3.4444444"/><path d="m49.9444444 91.2777778s-1.7222222 1.7222222-3.4444444 1.7222222c-2.852 0-5.1666667-2.3146667-5.1666667-5.1666667 0-1.7222222 1.7222223-3.4444444 1.7222223-3.4444444"/><path d="m48.2222222 24.1111111-10.3333333 10.3333333s-1.7222222 1.7222223-1.7222222 3.4444445c0 2.852 2.3146666 5.1666667 5.1666666 5.1666667 1.7222223 0 3.4444445-1.7222223 3.4444445-1.7222223l8.6111111-8.6111111h5.1666667v10.3333334l22.3888888 22.3888888s1.7222223 1.7222223 1.7222223 3.4444445c0 2.852-2.3146667 5.1666667-5.1666667 5.1666667-1.7222222 0-3.4444444-1.7222223-3.4444444-1.7222223"/></g><path d="m72.3333333 41.3333333c0 2.852-2.3146666 5.1666667-5.1666666 5.1666667h-5.1666667"/></g><g stroke="#46b281" stroke-linecap="round"><path d="m106.777778 39.6111111-8.6111113 8.6111111h-3.4444445l-27.5555555-27.5555555v-3.4444445l17.2222222-17.2222222" stroke-linejoin="round"/><path d="m0 39.6111111 8.61111111 8.6111111h3.44444449l27.5555555-27.5555555v-3.4444445l-17.2222222-17.2222222" stroke-linejoin="round"/><path d="m96.4444444 36.1666667 3.4444445-3.4444445"/><path d="m6.88888889 32.7222222 3.44444441 3.4444445"/></g></g><g transform="translate(344.5 3.5)"><circle cx="22.5" cy="22.5" r="22.5" stroke="#46b281"/><g stroke="#005baa"><path d="m28.5 45v30c0 3.3135-2.6865 6-6 6s-6-2.6865-6-6v-30"/><path d="m22.5 58.5v3"/><path d="m22.5 64.5v3"/><path d="m22.5 70.5v3"/><path d="m46.5 9h34.5v70.5l-13.5 13.5h-45v-7.5"/><path d="m67.5 93v-13.5h13.5"/></g><path d="m33 22.5v10.5h-21v-21h16.5" stroke="#46b281"/><path d="m33 15-10.5 10.5-4.5-4.5" stroke="#46b281"/><g stroke="#005baa"><path d="m34.5 49.5h6v6h-6z"/><path d="m34.5 61.5h6v6h-6z"/><path d="m34.5 73.5h6v6h-6z"/><path d="m73.5 49.5h-28.5"/><path d="m73.5 55.5h-28.5"/><path d="m73.5 61.5h-28.5"/><path d="m73.5 67.5h-28.5"/><path d="m60 79.5h-15"/><path d="m73.5 73.5h-28.5"/><path d="m49.5 25.5h22.5v15h-27"/><path d="m73.5 19.5h-3"/><path d="m67.5 19.5h-3"/><path d="m61.5 19.5h-3"/></g></g><g stroke="#46b281" transform="translate(225.5 4)"><path d="m33.1016949 63.0508475h-1.5762712c-17.4114915 0-31.5254237-14.1139322-31.5254237-31.5254238 0-17.4114915 14.1139322-31.5254237 31.5254237-31.5254237 9.5900339 0 17.8623051 4.278 23.6440678 11.0338983"/><path d="m9.45762712 53.5932203 22.06779658-22.0677966v-31.5254237"/><path d="m31.5254237 31.5254237h-31.5254237"/></g><g stroke="#005baa"><g transform="translate(253.872881 19.762712)"><path d="m0 77.2372881v-11.0338983c0-15.7627118 11.0338983-14.1864406 22.0677966-20.4915254"/><path d="m47.2881356 45.7118644c11.0338983 6.3050848 22.0677966 4.7288136 22.0677966 20.4915254v11.0338983"/><path d="m40.9830508 52.0169492-6.3050847-3.1525424-6.3050847 3.1525424-6.3050848-6.3050848 3.1525424-4.7288136 9.4576271 1.5762712 9.4576271-1.5762712 3.1525424 4.7288136z"/><path d="m42.559322 34.6779661v6.3050847"/><path d="m26.7966102 40.9830508v-6.3050847"/><path d="m33.1016949 63.0508475h3.1525424"/><path d="m33.1016949 56.7457627h3.1525424"/><path d="m48.8644068 14.1864407c0-9.57584748-4.6105932-14.1864407-14.1864407-14.1864407s-14.1864407 4.61059322-14.1864407 14.1864407v6.3050847c1.5762712 11.0338983 6.3050848 14.1864407 6.3050848 14.1864407 3.1525423 1.5762712 7.8813559 1.5762712 7.8813559 1.5762712s4.7288136 0 7.8813559-1.5762712c0 0 4.7288136-3.1525424 6.3050848-14.1864407z"/><path d="m20.4915254 14.1864407 6.3050848-3.1525424 7.8813559 3.1525424 7.8813559 3.1525424 6.3050848-3.1525424"/><path d="m12.6101695 77.2372881v-9.4576271"/><path d="m56.7457627 77.2372881v-9.4576271"/></g><g transform="translate(139.5 24.5)"><path d="m12 0c-6.627 0-12 5.373-12 12v16.5"/><path d="m39 0c6.627 0 12 5.373 12 12v16.5"/></g><g transform="translate(118.5 69.5)"><path d="m72 0h21v27h-15"/><path d="m15 27h-15v-27h21"/></g></g><g stroke="#46b281" stroke-linejoin="round"><g transform="translate(135 60.5)"><path d="m55.5 4.5v31.5h-51v-31.5c0-2.484 2.016-4.5 4.5-4.5h42c2.484 0 4.5 2.016 4.5 4.5z"/><path d="m55.5 36 4.5-9v-9h-4.5"/><path d="m4.5 36-4.5-9v-9h4.5"/></g><circle cx="165" cy="78.5" r="4.5"/></g><g stroke="#005baa" transform="translate(132 3.5)"><path d="m0 66v-3c0-15 10.5-13.5 21-19.5"/><path d="m45 43.5c10.5 6 21 3 21 18v4.5"/><path d="m39 49.5-6-3-6 3-6-6 3-4.5 9 1.5 9-1.5 3 4.5z"/><path d="m40.5 33v6"/><path d="m25.5 39v-6"/><path d="m46.5 13.5c0-9.1125-4.3875-13.5-13.5-13.5s-13.5 4.3875-13.5 13.5v6c1.5 10.5 6 13.5 6 13.5 3 1.5 7.5 1.5 7.5 1.5s4.5 0 7.5-1.5c0 0 4.5-3 6-13.5z"/><path d="m19.5 13.5 6-3 7.5 3 7.5 3 6-3"/></g><g transform="translate(19 3.5)"><path d="m60 6h12v87h-66v-6" stroke="#005baa"/><g stroke="#46b281"><path d="m7.5 24h51"/><path d="m7.5 30h51"/><path d="m7.5 36h51"/><path d="m7.5 42h21"/><path d="m9 79.5v-22.5"/><path d="m15 79.5v-15"/><path d="m21 79.5v-28.5"/><path d="m27 79.5v-19.5"/><path d="m33 79.5v-25.5"/><path d="m39 79.5v-16.5"/><path d="m45 79.5v-19.5"/><path d="m51 79.5v-30"/><path d="m57 79.5v-25.5"/></g><g stroke="#005baa"><path d="m54 1.5v10.5h10.5"/><path d="m54 0 12 12v75h-66v-87z"/></g><path d="m9 9h36v9h-36z" stroke="#46b281" stroke-linejoin="round"/></g></g></svg>