<svg height="70" viewBox="0 0 200 70" width="200" xmlns="http://www.w3.org/2000/svg"><g fill="none" transform="translate(4 5)"><path d="m0 11.42h46.81l-23.4-11.42z" fill="#44b97b"/><g fill="#034694"><path d="m57.68 13.83v11h4c3.13 0 3.9-2 3.9-3.2 0-1.41-.67-3.55-3.9-3.55h-1.77v-2.31h4.8v-1.94zm2.23 6h1.38c1.24 0 2 .53 2 1.65s-.72 1.64-2 1.64h-1.38z"/><path d="m72.15 21.12c-1.18 0-2.89 0-2.89 1.32 0 .58.36 1 1.3 1s2-.41 2-2.17v-.2zm-4.08-4c.9538276-.3778706 1.9744371-.5581782 3-.53 3.29 0 3.59 1.89 3.59 3.12v5.13h-2.11v-1.22c-.5040117.9160494-1.5110558 1.4373428-2.55 1.32-2.06 0-2.89-1.22-2.89-2.48s.59-2.69 4-2.69h1.2.19v-.35c-.06-1.35-1.55-1.39-1.82-1.39-.9162669-.0027641-1.8156761.2463031-2.6.72z"/><path d="m78.81 16.68v3.07h3.43v-3.07h2.13v8.13h-2.13v-3.49h-3.43v3.49h-2.13v-8.13z"/><path d="m88.54 16.68v3.69h.08l2.61-3.69h2.38l-3.01 3.84 3.43 4.29h-2.68l-2.73-3.89h-.08v3.89h-2.13v-8.13z"/><path d="m66.1 29.38v4.69h.05l3.69-4.69h2.64l-4.26 4.97 4.33 6.01h-2.82l-3.58-5.46h-.05v5.46h-2.23v-5.46h-.04l-3.58 5.46h-2.83l4.34-6.01-4.27-4.97h2.65l3.69 4.69h.04v-4.69z"/><path d="m75.81 32.23v4.27l-.06 1.45h.03l3.5-5.72h2.39v8.13h-2.14v-4.21l.06-1.52h-.04l-3.6 5.73h-2.27v-8.13z"/><path d="m90.84 32.23v8.13h-2.13v-6.56h-2.51v1.8c0 4-.38 4.89-2.53 4.89-.3055075.0136849-.6108529-.0304205-.9-.13l.09-1.64c.1177876.0465537.2433466.0703081.37.07 1.23 0 1.07-1.45 1.07-3.19v-3.37z"/><path d="m95.02 32.23v4.27l-.06 1.45h.02l3.51-5.72h2.37v8.13h-2.13v-4.21l.07-1.52h-.05l-3.59 5.73h-2.28v-8.13z"/><path d="m105.04 32.23v6.56h2.62v-6.56h2.14v6.56h2.61v-6.56h2.14v6.56h1.36v3.69h-1.96v-2.12h-11.04v-8.13z"/><path d="m119.3 32.23v3.08h3.42v-3.08h2.14v8.13h-2.14v-3.49h-3.42v3.49h-2.13v-8.13z"/><path d="m126.42 36.29c0 2.3140731 1.875927 4.19 4.19 4.19s4.19-1.8759269 4.19-4.19-1.875927-4.19-4.19-4.19-4.19 1.8759269-4.19 4.19zm2.23 0c0-1.88 1-2.64 2-2.64s2 .76 2 2.64-1 2.66-2 2.66-2-.77-2-2.66z"/><path d="m142.03 32.23v1.65h-3.53v6.48h-2.13v-8.13z"/><path d="m142.74 36.29c0 2.3140731 1.875927 4.19 4.19 4.19s4.19-1.8759269 4.19-4.19-1.875927-4.19-4.19-4.19-4.19 1.8759269-4.19 4.19zm2.23 0c0-1.88 1-2.64 2-2.64s2 .76 2 2.64-1 2.66-2 2.66-1.97-.77-1.97-2.66z"/><path d="m62.49 53.36c-1.49 0-2.72-.93-2.72-3s1.23-3 2.72-3h.51v6zm2.7-9.1h-2.19v1.41h-.65c-1.7326823-.0799014-3.3690612.7989817-4.2592935 2.2876249s-.8902323 3.346107 0 4.8347502 2.5266112 2.3675263 4.2592935 2.2876249h.65v1.42h2.23v-1.42h.66c1.7326823.0799014 3.3690612-.7989817 4.2592935-2.2876249s.8902323-3.346107 0-4.8347502-2.5266112-2.3675263-4.2592935-2.2876249h-.66zm.47 3.13c1.49 0 2.72.93 2.72 3s-1.23 3-2.72 3h-.47v-6z"/><path d="m74.75 47.74v4.27l-.07 1.46h.03l3.5-5.73h2.39v8.13h-2.14v-4.21l.07-1.52h-.06l-3.58 5.73h-2.28v-8.13z"/><path d="m84.77 47.74v3.07h3.42v-3.07h2.13v8.13h-2.13v-3.49h-3.42v3.49h-2.13v-8.13z"/><path d="m96.94 52.18c-1.17 0-2.88 0-2.88 1.32 0 .58.36 1 1.3 1s1.94-.41 1.94-2.17v-.2zm-4.08-4c.9529759-.3808687 1.9742099-.5612867 3-.53 3.3 0 3.6 1.89 3.6 3.12v5.13h-2.11v-1.2c-.5085681.9198269-1.5276915 1.4353368-2.57 1.3-2.06 0-2.89-1.21-2.89-2.48 0-1.11.59-2.68 4-2.68h1.18.19v-.34c-.07-1.35-1.55-1.4-1.82-1.4-.9201931.0014838-1.8225622.2538705-2.61.73z"/><path d="m103.61 47.74v3.07h3.42v-3.07h2.13v8.13h-2.13v-3.49h-3.42v3.49h-2.14v-8.13z"/><path d="m116.8 49.37c-.418997-.1548722-.863398-.2295045-1.31-.22-.692742.0039285-1.353059.2939907-1.824589.8015011s-.712342 1.1873369-.665411 1.8784989c-.068066.6743104.153355 1.3458127.609155 1.8473838.4558.501571 1.103117.7860428 1.780845.7826162.560522-.0039534 1.11464-.1195363 1.63-.34l.07 1.56c-.676017.2137185-1.381007.3216595-2.09.32-1.541814.0424671-2.982294-.7655752-3.749794-2.1034611-.7675-1.3378858-.737905-2.98926.077039-4.2987866.814945-1.3095266 2.283452-2.0654365 3.822755-1.9677523.609429-.0003166 1.216833.0701556 1.81.21z"/><path d="m120.6 47.74v4.27l-.07 1.46h.04l3.5-5.73h2.38v8.13h-2.13v-4.21l.06-1.52h-.05l-3.59 5.73h-2.27v-8.13z"/><path d="m130.63 59.23v-3.13-1.33c.507647.8103661 1.415137 1.2813423 2.37 1.23 1.77 0 3.51-1.19 3.51-4.18s-1.57-4.19-3.42-4.19c-1.096584-.0126919-2.112711.5739776-2.65 1.53v-1.42h-1.87v11.49zm0-7.42c0-1.73.94-2.5 1.8-2.5s1.81.77 1.81 2.5-1 2.49-1.81 2.49-1.8-.77-1.8-2.49z"/><path d="m137.56 51.81c0 2.3140731 1.875927 4.19 4.19 4.19s4.19-1.8759269 4.19-4.19-1.875927-4.19-4.19-4.19-4.19 1.8759269-4.19 4.19zm2.23 0c0-1.89 1-2.66 2-2.66s2 .77 2 2.66-1 2.65-2 2.65-2-.78-2-2.65z"/><path d="m149.64 52.32h1.36c.5 0 1.43.06 1.43 1.07s-1 1.07-1.42 1.07h-1.36zm-2.13-4.58v8.13h4.11c1.83 0 3-.82 3-2.28.033091-.5173189-.148889-1.0253445-.502924-1.4039911-.354035-.3786467-.848703-.5943088-1.367076-.5960089.88784-.1408618 1.531306-.9216004 1.5-1.82 0-.87-.45-2-2.79-2zm2.13 1.41h1.36c.41 0 1.21.05 1.21.88s-.79.88-1.21.88h-1.32z"/><path d="m156.87 49.83c.787438-.4761295 1.689807-.7285162 2.61-.73.26 0 1.75 0 1.81 1.4v.35h-.19-1.19c-3.45 0-4 1.57-4 2.68 0 1.27.83 2.48 2.88 2.48 1.03946.1201477 2.047981-.4019098 2.55-1.32v1.2h2.09v-5.15c0-1.23-.31-3.12-3.6-3.12-1.025915-.0330228-2.047502.1474575-3 .53zm4.44 2.35v.2c0 1.76-1.06 2.17-1.94 2.17s-1.3-.47-1.3-1c0-1.3 1.7-1.32 2.88-1.32z"/><path d="m167.62 47.74v3.07h3.42v-3.07h2.13v8.13h-2.13v-3.49h-3.42v3.49h-2.14v-8.13z"/><path d="m177.35 47.74v4.27l-.07 1.46h.04l3.49-5.73h2.39v8.13h-2.13v-4.21l.05-1.52h-.04l-3.6 5.73h-2.27v-8.13z"/><path d="m192 47.74h-4.21c-.705746-.0663312-1.408116.1572474-1.945654.6193413s-.864001 1.1229512-.904346 1.8306587c-.041159 1.1392648.751496 2.139621 1.87 2.36l-2 3.32h2.54l1.6-3.06h1v3.06h2.05zm-2.13 1.41v2.29h-1.42c-.321707.0218636-.638677-.086663-.879471-.3011201s-.385149-.5167976-.400529-.8388799c.001067-.3278764.140841-.6399872.38474-.8591155s.569141-.3248047.89526-.2908845z"/><path d="m21.07 4.39h4.68v4.68h-4.68z"/></g><path d="m15.21 55.89 10.54-2.42v-23.24l-10.54-2.42z" fill="#44b97b"/><path d="m2.34 13.76v42.13h12.87v-28.09h16.39v28.09h12.87v-42.13z" fill="#034694"/></g></svg>