<?xml version="1.0" encoding="UTF-8"?>
<svg width="200px" height="70px" viewBox="0 0 200 70" version="1.1" xmlns="http://www.w3.org/2000/svg" xmlns:xlink="http://www.w3.org/1999/xlink">
    <!-- Generator: Sketch 52.1 (67048) - http://www.bohemiancoding.com/sketch -->
    <title>header-logo-color</title>
    <desc>Created with Sketch.</desc>
    <g id="header-logo-color" stroke="none" stroke-width="1" fill="none" fill-rule="evenodd">
        <g id="logo-color" transform="translate(4.000000, 5.000000)" fill-rule="nonzero">
            <polygon id="Shape" fill="#44B97B" points="0 11.42 46.81 11.42 23.41 0"></polygon>
            <path d="M57.68,13.83 L57.68,24.83 L61.68,24.83 C64.81,24.83 65.58,22.83 65.58,21.63 C65.58,20.22 64.91,18.08 61.68,18.08 L59.91,18.08 L59.91,15.77 L64.71,15.77 L64.71,13.83 L57.68,13.83 Z M59.91,19.83 L61.29,19.83 C62.53,19.83 63.29,20.36 63.29,21.48 C63.29,22.6 62.57,23.12 61.29,23.12 L59.91,23.12 L59.91,19.83 Z" id="Shape" fill="#034694"></path>
            <path d="M72.15,21.12 C70.97,21.12 69.26,21.12 69.26,22.44 C69.26,23.02 69.62,23.44 70.56,23.44 C71.5,23.44 72.56,23.03 72.56,21.27 L72.56,21.07 L72.15,21.12 Z M68.07,17.12 C69.0238276,16.7421294 70.0444371,16.5618218 71.07,16.59 C74.36,16.59 74.66,18.48 74.66,19.71 L74.66,24.84 L72.55,24.84 L72.55,23.62 C72.0459883,24.5360494 71.0389442,25.0573428 70,24.94 C67.94,24.94 67.11,23.72 67.11,22.46 C67.11,21.2 67.7,19.77 71.11,19.77 L72.31,19.77 L72.5,19.77 L72.5,19.42 C72.44,18.07 70.95,18.03 70.68,18.03 C69.7637331,18.0272359 68.8643239,18.2763031 68.08,18.75 L68.07,17.12 Z" id="Shape" fill="#034694"></path>
            <polygon id="Shape" fill="#034694" points="78.81 16.68 78.81 19.75 82.24 19.75 82.24 16.68 84.37 16.68 84.37 24.81 82.24 24.81 82.24 21.32 78.81 21.32 78.81 24.81 76.68 24.81 76.68 16.68"></polygon>
            <polygon id="Shape" fill="#034694" points="88.54 16.68 88.54 20.37 88.62 20.37 91.23 16.68 93.61 16.68 90.6 20.52 94.03 24.81 91.35 24.81 88.62 20.92 88.54 20.92 88.54 24.81 86.41 24.81 86.41 16.68"></polygon>
            <polygon id="Shape" fill="#034694" points="66.1 29.38 66.1 34.07 66.15 34.07 69.84 29.38 72.48 29.38 68.22 34.35 72.55 40.36 69.73 40.36 66.15 34.9 66.1 34.9 66.1 40.36 63.87 40.36 63.87 34.9 63.83 34.9 60.25 40.36 57.42 40.36 61.76 34.35 57.49 29.38 60.14 29.38 63.83 34.07 63.87 34.07 63.87 29.38"></polygon>
            <polygon id="Shape" fill="#034694" points="75.81 32.23 75.81 36.5 75.75 37.95 75.78 37.95 79.28 32.23 81.67 32.23 81.67 40.36 79.53 40.36 79.53 36.15 79.59 34.63 79.55 34.63 75.95 40.36 73.68 40.36 73.68 32.23"></polygon>
            <path d="M90.84,32.23 L90.84,40.36 L88.71,40.36 L88.71,33.8 L86.2,33.8 L86.2,35.6 C86.2,39.6 85.82,40.49 83.67,40.49 C83.3644925,40.5036849 83.0591471,40.4595795 82.77,40.36 L82.86,38.72 C82.9777876,38.7665537 83.1033466,38.7903081 83.23,38.79 C84.46,38.79 84.3,37.34 84.3,35.6 L84.3,32.23 L90.84,32.23 Z" id="Shape" fill="#034694"></path>
            <polygon id="Shape" fill="#034694" points="95.02 32.23 95.02 36.5 94.96 37.95 94.98 37.95 98.49 32.23 100.86 32.23 100.86 40.36 98.73 40.36 98.73 36.15 98.8 34.63 98.75 34.63 95.16 40.36 92.88 40.36 92.88 32.23"></polygon>
            <polygon id="Shape" fill="#034694" points="105.04 32.23 105.04 38.79 107.66 38.79 107.66 32.23 109.8 32.23 109.8 38.79 112.41 38.79 112.41 32.23 114.55 32.23 114.55 38.79 115.91 38.79 115.91 42.48 113.95 42.48 113.95 40.36 102.91 40.36 102.91 32.23"></polygon>
            <polygon id="Shape" fill="#034694" points="119.3 32.23 119.3 35.31 122.72 35.31 122.72 32.23 124.86 32.23 124.86 40.36 122.72 40.36 122.72 36.87 119.3 36.87 119.3 40.36 117.17 40.36 117.17 32.23"></polygon>
            <path d="M126.42,36.29 C126.42,38.6040731 128.295927,40.48 130.61,40.48 C132.924073,40.48 134.8,38.6040731 134.8,36.29 C134.8,33.9759269 132.924073,32.1 130.61,32.1 C128.295927,32.1 126.42,33.9759269 126.42,36.29 Z M128.65,36.29 C128.65,34.41 129.65,33.65 130.65,33.65 C131.65,33.65 132.65,34.41 132.65,36.29 C132.65,38.17 131.65,38.95 130.65,38.95 C129.65,38.95 128.65,38.18 128.65,36.29 Z" id="Shape" fill="#034694"></path>
            <polygon id="Shape" fill="#034694" points="142.03 32.23 142.03 33.88 138.5 33.88 138.5 40.36 136.37 40.36 136.37 32.23"></polygon>
            <path d="M142.74,36.29 C142.74,38.6040731 144.615927,40.48 146.93,40.48 C149.244073,40.48 151.12,38.6040731 151.12,36.29 C151.12,33.9759269 149.244073,32.1 146.93,32.1 C144.615927,32.1 142.74,33.9759269 142.74,36.29 Z M144.97,36.29 C144.97,34.41 145.97,33.65 146.97,33.65 C147.97,33.65 148.97,34.41 148.97,36.29 C148.97,38.17 147.97,38.95 146.97,38.95 C145.97,38.95 145,38.18 145,36.29 L144.97,36.29 Z" id="Shape" fill="#034694"></path>
            <path d="M62.49,53.36 C61,53.36 59.77,52.43 59.77,50.36 C59.77,48.29 61,47.36 62.49,47.36 L63,47.36 L63,53.36 L62.49,53.36 Z M65.19,44.26 L63,44.26 L63,45.67 L62.35,45.67 C60.6173177,45.5900986 58.9809388,46.4689817 58.0907065,47.9576249 C57.2004742,49.4462681 57.2004742,51.3037319 58.0907065,52.7923751 C58.9809388,54.2810183 60.6173177,55.1599014 62.35,55.08 L63,55.08 L63,56.5 L65.23,56.5 L65.23,55.08 L65.89,55.08 C67.6226823,55.1599014 69.2590612,54.2810183 70.1492935,52.7923751 C71.0395258,51.3037319 71.0395258,49.4462681 70.1492935,47.9576249 C69.2590612,46.4689817 67.6226823,45.5900986 65.89,45.67 L65.23,45.67 L65.19,44.26 Z M65.66,47.39 C67.15,47.39 68.38,48.32 68.38,50.39 C68.38,52.46 67.15,53.39 65.66,53.39 L65.19,53.39 L65.19,47.39 L65.66,47.39 Z" id="Shape" fill="#034694"></path>
            <polygon id="Shape" fill="#034694" points="74.75 47.74 74.75 52.01 74.68 53.47 74.71 53.47 78.21 47.74 80.6 47.74 80.6 55.87 78.46 55.87 78.46 51.66 78.53 50.14 78.47 50.14 74.89 55.87 72.61 55.87 72.61 47.74"></polygon>
            <polygon id="Shape" fill="#034694" points="84.77 47.74 84.77 50.81 88.19 50.81 88.19 47.74 90.32 47.74 90.32 55.87 88.19 55.87 88.19 52.38 84.77 52.38 84.77 55.87 82.64 55.87 82.64 47.74"></polygon>
            <path d="M96.94,52.18 C95.77,52.18 94.06,52.18 94.06,53.5 C94.06,54.08 94.42,54.5 95.36,54.5 C96.3,54.5 97.3,54.09 97.3,52.33 L97.3,52.13 L96.94,52.18 Z M92.86,48.18 C93.8129759,47.7991313 94.8342099,47.6187133 95.86,47.65 C99.16,47.65 99.46,49.54 99.46,50.77 L99.46,55.9 L97.35,55.9 L97.35,54.7 C96.8414319,55.6198269 95.8223085,56.1353368 94.78,56 C92.72,56 91.89,54.79 91.89,53.52 C91.89,52.41 92.48,50.84 95.89,50.84 L97.07,50.84 L97.26,50.84 L97.26,50.5 C97.19,49.15 95.71,49.1 95.44,49.1 C94.5198069,49.1014838 93.6174378,49.3538705 92.83,49.83 L92.86,48.18 Z" id="Shape" fill="#034694"></path>
            <polygon id="Shape" fill="#034694" points="103.61 47.74 103.61 50.81 107.03 50.81 107.03 47.74 109.16 47.74 109.16 55.87 107.03 55.87 107.03 52.38 103.61 52.38 103.61 55.87 101.47 55.87 101.47 47.74"></polygon>
            <path d="M116.8,49.37 C116.381003,49.2151278 115.936602,49.1404955 115.49,49.15 C114.797258,49.1539285 114.136941,49.4439907 113.665411,49.9515011 C113.193881,50.4590115 112.953069,51.138838 113,51.83 C112.931934,52.5043104 113.153355,53.1758127 113.609155,53.6773838 C114.064955,54.1789548 114.712272,54.4634266 115.39,54.46 C115.950522,54.4560466 116.50464,54.3404637 117.02,54.12 L117.09,55.68 C116.413983,55.8937185 115.708993,56.0016595 115,56 C113.458186,56.0424671 112.017706,55.2344248 111.250206,53.8965389 C110.482706,52.5586531 110.512301,50.9072789 111.327245,49.5977523 C112.14219,48.2882257 113.610697,47.5323158 115.15,47.63 C115.759429,47.6296834 116.366833,47.7001556 116.96,47.84 L116.8,49.37 Z" id="Shape" fill="#034694"></path>
            <polygon id="Shape" fill="#034694" points="120.6 47.74 120.6 52.01 120.53 53.47 120.57 53.47 124.07 47.74 126.45 47.74 126.45 55.87 124.32 55.87 124.32 51.66 124.38 50.14 124.33 50.14 120.74 55.87 118.47 55.87 118.47 47.74"></polygon>
            <path d="M130.63,59.23 L130.63,56.1 L130.63,54.77 C131.137647,55.5803661 132.045137,56.0513423 133,56 C134.77,56 136.51,54.81 136.51,51.82 C136.51,48.83 134.94,47.63 133.09,47.63 C131.993416,47.6173081 130.977289,48.2039776 130.44,49.16 L130.44,47.74 L128.57,47.74 L128.57,59.23 L130.63,59.23 Z M130.63,51.81 C130.63,50.08 131.57,49.31 132.43,49.31 C133.29,49.31 134.24,50.08 134.24,51.81 C134.24,53.54 133.24,54.3 132.43,54.3 C131.62,54.3 130.63,53.53 130.63,51.81 Z" id="Shape" fill="#034694"></path>
            <path d="M137.56,51.81 C137.56,54.1240731 139.435927,56 141.75,56 C144.064073,56 145.94,54.1240731 145.94,51.81 C145.94,49.4959269 144.064073,47.62 141.75,47.62 C139.435927,47.62 137.56,49.4959269 137.56,51.81 Z M139.79,51.81 C139.79,49.92 140.79,49.15 141.79,49.15 C142.79,49.15 143.79,49.92 143.79,51.81 C143.79,53.7 142.79,54.46 141.79,54.46 C140.79,54.46 139.79,53.68 139.79,51.81 Z" id="Shape" fill="#034694"></path>
            <path d="M149.64,52.32 L151,52.32 C151.5,52.32 152.43,52.38 152.43,53.39 C152.43,54.4 151.43,54.46 151.01,54.46 L149.65,54.46 L149.64,52.32 Z M147.51,47.74 L147.51,55.87 L151.62,55.87 C153.45,55.87 154.62,55.05 154.62,53.59 C154.653091,53.0726811 154.471111,52.5646555 154.117076,52.1860089 C153.763041,51.8073622 153.268373,51.5917001 152.75,51.59 C153.63784,51.4491382 154.281306,50.6683996 154.25,49.77 C154.25,48.9 153.8,47.77 151.46,47.77 L147.51,47.74 Z M149.64,49.15 L151,49.15 C151.41,49.15 152.21,49.2 152.21,50.03 C152.21,50.86 151.42,50.91 151,50.91 L149.68,50.91 L149.64,49.15 Z" id="Shape" fill="#034694"></path>
            <path d="M156.87,49.83 C157.657438,49.3538705 158.559807,49.1014838 159.48,49.1 C159.74,49.1 161.23,49.1 161.29,50.5 L161.29,50.85 L161.1,50.85 L159.91,50.85 C156.46,50.85 155.91,52.42 155.91,53.53 C155.91,54.8 156.74,56.01 158.79,56.01 C159.82946,56.1301477 160.837981,55.6080902 161.34,54.69 L161.34,55.89 L163.43,55.89 L163.43,50.74 C163.43,49.51 163.12,47.62 159.83,47.62 C158.804085,47.5869772 157.782498,47.7674575 156.83,48.15 L156.87,49.83 Z M161.31,52.18 L161.31,52.38 C161.31,54.14 160.25,54.55 159.37,54.55 C158.49,54.55 158.07,54.08 158.07,53.55 C158.07,52.25 159.77,52.23 160.95,52.23 L161.31,52.18 Z" id="Shape" fill="#034694"></path>
            <polygon id="Shape" fill="#034694" points="167.62 47.74 167.62 50.81 171.04 50.81 171.04 47.74 173.17 47.74 173.17 55.87 171.04 55.87 171.04 52.38 167.62 52.38 167.62 55.87 165.48 55.87 165.48 47.74"></polygon>
            <polygon id="Shape" fill="#034694" points="177.35 47.74 177.35 52.01 177.28 53.47 177.32 53.47 180.81 47.74 183.2 47.74 183.2 55.87 181.07 55.87 181.07 51.66 181.12 50.14 181.08 50.14 177.48 55.87 175.21 55.87 175.21 47.74"></polygon>
            <path d="M192,47.74 L187.79,47.74 C187.084254,47.6736688 186.381884,47.8972474 185.844346,48.3593413 C185.306808,48.8214352 184.980345,49.4822925 184.94,50.19 C184.898841,51.3292648 185.691496,52.329621 186.81,52.55 L184.81,55.87 L187.35,55.87 L188.95,52.81 L189.95,52.81 L189.95,55.87 L192,55.87 L192,47.74 Z M189.87,49.15 L189.87,51.44 L188.45,51.44 C188.128293,51.4618636 187.811323,51.353337 187.570529,51.1388799 C187.329735,50.9244228 187.18538,50.6220823 187.17,50.3 C187.171067,49.9721236 187.310841,49.6600128 187.55474,49.4408845 C187.798639,49.2217562 188.123881,49.1160798 188.45,49.15 L189.87,49.15 Z" id="Shape" fill="#034694"></path>
            <polygon id="Rectangle-path" fill="#034694" points="21.07 4.39 25.75 4.39 25.75 9.07 21.07 9.07"></polygon>
            <polygon id="Shape" fill="#44B97B" points="15.21 55.89 25.75 53.47 25.75 30.23 15.21 27.81"></polygon>
            <polygon id="Shape" fill="#034694" points="2.34 13.76 2.34 55.89 15.21 55.89 15.21 27.8 31.6 27.8 31.6 55.89 44.47 55.89 44.47 13.76"></polygon>
        </g>
    </g>
</svg>