<svg height="160" viewBox="0 0 80 160" width="80" xmlns="http://www.w3.org/2000/svg"><g fill="none" fill-rule="evenodd"><g fill-rule="nonzero" transform="translate(5 85)"><path d="m35 0c-19.3299662 0-35 15.6700338-35 35s15.6700338 35 35 35 35-15.6700338 35-35c0-9.2825771-3.6874894-18.1849641-10.2512627-24.7487373-6.5637732-6.56377329-15.4661602-10.2512627-24.7487373-10.2512627zm0 65.625c-16.9137205 0-30.625-13.7112795-30.625-30.625s13.7112795-30.625 30.625-30.625 30.625 13.7112795 30.625 30.625c0 8.122255-3.2265532 15.9118436-8.9698548 21.6551452s-13.5328902 8.9698548-21.6551452 8.9698548z" fill="#0db10e"/><path d="m28.4375 45.040625-9.384375-9.40625-3.10625 3.10625 10.9375 10.9375c.8532069.8481454 2.2311681.8481454 3.084375 0l24.0625-24.0625-3.084375-3.084375z" fill="#ff9c00"/></g><g fill="#f50" transform="translate(5 5)"><path d="m35 0c-19.3299662 0-35 15.6700338-35 35s15.6700338 35 35 35 35-15.6700338 35-35c0-9.2825771-3.6874894-18.1849641-10.2512627-24.7487373-6.5637732-6.56377329-15.4661602-10.2512627-24.7487373-10.2512627zm0 65.625c-16.9137205 0-30.625-13.7112795-30.625-30.625s13.7112795-30.625 30.625-30.625 30.625 13.7112795 30.625 30.625c0 8.122255-3.2265532 15.9118436-8.9698548 21.6551452s-13.5328902 8.9698548-21.6551452 8.9698548z" fill-rule="nonzero"/><rect height="5" rx="1" width="36" x="17" y="32.5"/></g></g></svg>