<?xml version="1.0" encoding="UTF-8"?><!DOCTYPE svg PUBLIC "-//W3C//DTD SVG 1.1//EN" "http://www.w3.org/Graphics/SVG/1.1/DTD/svg11.dtd"><svg xmlns="http://www.w3.org/2000/svg"><symbol id="ico-mono-benefit-icon-calendar" viewBox="0 0 485.2 485.2">
    <path d="M60.7 75.8V15.2C60.7 6.8 67.4 0 75.8 0 84.2 0 91 6.8 91 15.2v60.7C91 84.2 84.2 91 75.8 91c-8.4 0-15.1-6.8-15.1-15.2zM318.4 91c8.4 0 15.2-6.8 15.2-15.2V15.2c0-8.4-6.8-15.2-15.2-15.2-8.4 0-15.2 6.8-15.2 15.2v60.7c.1 8.3 6.8 15.1 15.2 15.1zm166.8 272.9c0 67-54.3 121.3-121.3 121.3s-121.3-54.3-121.3-121.3 54.3-121.3 121.3-121.3 121.3 54.3 121.3 121.3zm-30.3 0c0-50.2-40.8-91-91-91s-91 40.8-91 91 40.8 91 91 91 91-40.8 91-91zM121.3 182H60.7v60.7h60.7V182zM60.7 333.6h60.7v-60.7H60.7v60.7zm90.9-91h60.7V182h-60.7v60.6zm0 91h60.7v-60.7h-60.7v60.7zM30.3 360.9V151.6h333.6v60.7h30.3V94c0-18.4-14.7-33.3-32.8-33.3h-12.6v15.2c0 16.7-13.6 30.3-30.3 30.3-16.7 0-30.3-13.6-30.3-30.3V60.7h-182v15.2c0 16.7-13.6 30.3-30.3 30.3-16.7 0-30.3-13.6-30.3-30.3V60.7H32.9C14.7 60.7 0 75.6 0 94v266.9c0 18.4 14.7 33.3 32.9 33.3h179.4v-30.3H32.9c-1.4 0-2.6-1.4-2.6-3zm273-118.3V182h-60.6v60.7h60.6zm106.1 121.3h-45.5v-45.5c0-8.4-6.8-15.2-15.2-15.2s-15.2 6.8-15.2 15.2v60.7c0 8.4 6.8 15.2 15.2 15.2h60.7c8.4 0 15.2-6.8 15.2-15.2 0-8.4-6.8-15.2-15.2-15.2z"/>
</symbol><symbol id="ico-mono-benefit-icon-contract" viewBox="0 0 512 512">
    <path d="M389.5 87.4c0-12-4.7-23.3-13.2-31.8l-42.4-42.4C325.5 4.8 313.6 0 301.8 0h-2.6v90h90.3v-2.6z"/>
    <path d="M273.9 309.5c2.9-8.7 7.9-16.8 14.4-23.4L389.9 185v-65H284.5c-8.3 0-14.5-6.7-14.5-15V0H45C20.2 0 0 20.2 0 45v422c0 24.8 20.2 45 45 45h299.5c24.8 0 45.4-20.2 45.4-45V355l-16.5 16.1c-6.7 6.6-14.5 11.4-23.3 14.4l-47.7 15.9-7.3.4c-12 0-23.4-5.8-30.4-15.6-7-9.7-8.9-22.4-5.1-33.8l14.3-42.9zM75 270h149.5c8.3 0 15 6.7 15 15s-6.7 15-15 15H75c-8.3 0-15-6.7-15-15s6.7-15 15-15zm-15-45c0-8.3 6.7-15 15-15h149.5c8.3 0 15 6.7 15 15s-6.7 15-15 15H75c-8.3 0-15-6.7-15-15zm0 120c0-8.3 6.7-15 15-15h149.5c8.3 0 15 6.7 15 15s-6.7 15-15 15H75c-8.3 0-15-6.7-15-15zm224.5 75c8.3 0 15 6.7 15 15s-6.7 15-15 15h-90c-8.3 0-15-6.7-15-15s6.7-15 15-15h90zM75 180c-8.3 0-15-6.7-15-15s6.7-15 15-15h209.5c8.3 0 15 6.7 15 15s-6.7 15-15 15H75z"/>
    <path d="M301.1 322.8l-13 39.2c-2 5.9 3.6 11.4 9.5 9.5l39.1-13.1-35.6-35.6z"/>
    <path d="M417.6 199.3l-98.8 98.8 42.6 42.6 98.8-98.8-42.6-42.6z"/>
    <path d="M503.2 156.3c-5.3-5.3-13-8.3-21.3-8.3s-16 3-21.3 8.4l-21.8 21.8 42.6 42.6 21.8-21.8c11.7-11.8 11.7-31 0-42.7z"/>
    <path d="M503.2 198.9c.1 0 .1-.1 0 0 .1-.1.1 0 0 0z"/>
    <path d="M503.3 198.8l.1-.1s0 .1-.1.1z"/>
    <path d="M503.4 198.7c.1-.1.1-.1 0 0z"/>
</symbol><symbol id="ico-mono-benefit-icon-guard" viewBox="0 0 291.2 374">
    <path d="M287.5 75.7L147 .8c-2.1-1.1-4.6-1.1-6.7 0L3.6 75.8C1.4 77 0 79.3 0 81.9v97.8c.1 80.4 47.7 153.2 121.4 185.4l19 8.3c1.8.8 3.8.8 5.6 0l21.4-9.2c75.1-31.5 123.9-105 123.9-186.4V81.9c-.1-2.6-1.5-5-3.8-6.2zm-10.3 102.1c0 75.8-45.5 144.2-115.4 173.5l-18.6 8-16.2-7.1c-68.6-30-113-97.7-113-172.6V86l129.7-71.1L277.2 86v91.8z"/>
    <path d="M92.1 175.2a7.08 7.08 0 0 0-9.9-.8 7.08 7.08 0 0 0-.8 9.9l37 43.3c2.5 2.9 6.8 3.3 9.7.9l86.1-70c3-2.4 3.5-6.8 1-9.8-2.4-3-6.8-3.5-9.8-1l-80.8 65.7-32.5-38.2z"/>
</symbol><symbol id="ico-mono-benefit-icon-home" viewBox="0 0 58 58.4">
    <path d="M57.7 26.6l-8.7-8V5.4H39v3.9L29 0 .3 26.6c-.4.4-.4 1-.1 1.4.4.4 1 .4 1.4.1L5 25v33.3h48V25l3.3 3.1c.2.2.4.3.7.3.3 0 .5-.1.7-.3.4-.5.4-1.1 0-1.5zM41 7.4h6v9.3l-6-5.6V7.4zm-18 49V35.3c0-.5.4-.9.9-.9H34c.5 0 .9.4.9.9v21.1H23zm28 0H37V35.3c0-1.6-1.3-2.9-2.9-2.9H23.9c-1.6 0-2.9 1.3-2.9 2.9v21.1H7V23.2L29 2.7 43.3 16l5.7 5.3 2 1.9v33.2z"/>
</symbol><symbol id="ico-mono-benefit-icon-security" viewBox="0 0 512 512">
    <path d="M452 31c0-8.3-6.7-15-15-15h-60c-8.3 0-15 6.7-15 15v13.9l90 75.5V31z"/>
    <path d="M7.3 231.1L50.9 257 246.8 89.1c5.6-4.8 13.9-4.8 19.5 0L462.1 257l42.5-25.9c8.9-5.3 9.9-17.8 2-24.4L266.2 3.5c-5.6-4.7-13.7-4.7-19.3 0L5.4 206.7c-7.9 6.7-7 19.1 1.9 24.4z"/>
    <path d="M302 286c0-24.8-20.7-45-45.5-45S211 261.2 211 286v15h91v-15z"/>
    <path d="M497 482h-45.1V287.4L256.5 120.3 61 287.4V482H15c-8.3 0-15 6.7-15 15s6.7 15 15 15h482c8.3 0 15-6.7 15-15s-6.7-15-15-15zm-135-46c0 8.3-6.7 15-15 15H166.5c-8.3 0-15.5-6.7-15.5-15V316c0-8.3 7.2-15 15.5-15H181v-15c0-41.4 34.2-75 75.5-75s75.5 33.6 75.5 75v15h15.5c8.3 0 14.5 6.7 14.5 15v120z"/>
    <path d="M271 376c0 8.3-6.7 15-15 15s-15-6.7-15-15v-45h-60v90h151v-90h-61v45z"/>
</symbol><symbol id="ico-mono-benefit-icon-team" viewBox="0 0 512 375.9">
    <path d="M451.7 169.2c-17.4-8.7-50.1-8.8-51.5-8.8-4.1 0-7.5 3.4-7.5 7.5s3.4 7.5 7.5 7.5c8.4 0 32.9 1.3 44.8 7.2 1.1.5 2.2.8 3.3.8 2.8 0 5.4-1.5 6.7-4.1 1.9-3.7.4-8.3-3.3-10.1z"/>
    <path d="M489.1 276l-31-8.9c-1.3-.4-2.3-1.6-2.3-3v-10.3c2.5-1.7 4.9-3.7 7.2-5.9 10.9-10.6 16.9-24.7 16.9-39.9v-14.3l3-6c3.3-6.6 5-13.9 5-21.3v-38.6c0-4.1-3.4-7.5-7.5-7.5h-72.2c-26.2 0-47.6 21.4-47.6 47.6v.4c0 6.1 1.4 12.2 4.2 17.7l3.8 7.7V206c0 19.4 9.6 36.8 24.1 47.3v10.8c0 1.7 0 2.4-6.2 4.1l-15.1 4.3-43.7-15.9c.2-2.1-.5-4.2-2-5.7l-14-14.7v-24.6c1.5-1.2 2.9-2.5 4.3-3.8 17.6-16.5 27.7-39.8 27.7-64v-19.7c5.3-11.6 8-23.8 8-36.5V7.5c0-4.1-3.4-7.5-7.5-7.5H232c-39.5 0-71.7 32.1-71.7 71.7v16c0 12.6 2.7 24.9 8 36.5v16.9c0 28 12.5 53.3 32.1 69.9v25.2l-14 14.7c-1.5 1.6-2.2 3.7-2 5.7l-46.1 16.8c-3.3 1.2-6.5 2.9-9.3 4.9l-7.2-3.6c21.6-9.4 28.4-22.6 28.7-23.3 1.1-2.1 1.1-4.6 0-6.7-5.4-10.8-6.1-30.6-6.6-46.6-.2-5.3-.3-10.3-.7-14.8-2.6-36-29.9-63.1-63.6-63.1S18.5 147.3 16 183.3c-.3 4.5-.5 9.5-.7 14.8-.5 15.9-1.2 35.7-6.6 46.6-1.1 2.1-1.1 4.6 0 6.7.3.7 7.1 13.8 28.8 23.2l-20.1 10.1C6.7 290.1 0 300.9 0 313v55.4c0 4.1 3.4 7.5 7.5 7.5s7.5-3.4 7.5-7.5V313c0-6.3 3.5-12 9.2-14.8l25.1-12.5L58 294c6.1 5.8 13.9 8.7 21.7 8.7 7.8 0 15.6-2.9 21.7-8.7l8.7-8.3 8.2 4.1c-3.8 6.2-6 13.4-6 20.9v57.7c0 4.1 3.4 7.5 7.5 7.5s7.5-3.4 7.5-7.5v-57.7c0-10.3 6.5-19.6 16.2-23.1l48.7-17.7 20.3 30.4c2.6 3.9 6.7 6.4 11.4 6.8.5.1 1 .1 1.5.1 4.1 0 8-1.6 11-4.5l12.4-12.4v78.1c0 4.1 3.4 7.5 7.5 7.5s7.5-3.4 7.5-7.5v-78.1l12.4 12.4c2.9 2.9 6.9 4.5 11 4.5.5 0 1 0 1.5-.1 4.6-.5 8.8-3 11.4-6.8l20.3-30.4 48.7 17.7c9.7 3.5 16.2 12.8 16.2 23.1v57.7c0 4.1 3.4 7.5 7.5 7.5s7.5-3.4 7.5-7.5v-57.7c0-10.4-4.1-20.2-11.1-27.4l1.9-.5c1.9-.5 4.4-1.3 7-2.5l19.1 19.1v69.1c0 4.1 3.4 7.5 7.5 7.5s7.5-3.4 7.5-7.5v-69.1l19-19c1 .5 2.1.9 3.2 1.3l31 8.8c7.1 2 12 8.6 12 15.9v62c0 4.1 3.4 7.5 7.5 7.5s7.5-3.4 7.5-7.5v-62c-.4-14.1-9.8-26.6-23.3-30.4zm-441-13.3c-14-5-21.1-11.8-24.1-15.5 2-5.4 3.4-11.5 4.3-18 4.1 9.9 11.1 18.4 19.8 24.4v9.1zm43 20.3c-6.4 6.1-16.4 6.1-22.8 0l-7-6.6c1.2-2.2 1.8-4.7 1.8-7.3v-8c5.2 1.6 10.8 2.5 16.6 2.5 5.8 0 11.3-.9 16.6-2.5v8c0 2.6.6 5.1 1.8 7.3l-7 6.6zm-11.4-34.4c-22.4 0-40.6-18.2-40.6-40.6 0-4.1-3.4-7.5-7.5-7.5-.4 0-.8 0-1.2.1 0-.6 0-1.3.1-1.9.2-5.2.3-10 .6-14.2 1-13.5 6.3-25.9 15.2-35 8.9-9.2 20.8-14.2 33.5-14.2s24.6 5 33.5 14.2c8.8 9.1 14.2 21.5 15.2 35 .3 4.2.5 9 .6 14.2v1.3c-8.2-12.6-20.8-21.8-37-27.1-15-4.8-28-4.5-28.5-4.5-2 .1-3.8.9-5.2 2.3l-13.5 14c-2.9 3-2.8 7.7.2 10.6s7.7 2.8 10.6-.2L67 183.4c9.7.5 40.9 4.1 53 30.8-3.3 19.8-20.2 34.4-40.3 34.4zm31.5 14.2v-8.9c8.7-6 15.7-14.5 19.8-24.4.9 6.5 2.2 12.6 4.3 17.9-3 3.5-10.1 10.3-24.1 15.4zm72.2-121.7v-18.6c0-1.1-.3-2.2-.7-3.3-4.8-10-7.3-20.6-7.3-31.5v-16c0-31.2 25.4-56.7 56.7-56.7h104.8v72.7c0 10.9-2.4 21.5-7.3 31.5-.5 1-.7 2.1-.7 3.3v21.4c0 20.3-8.2 39.1-23 53-1.9 1.7-3.8 3.4-5.8 4.9l-.1.1c-13.9 10.5-30.9 15.7-48.7 14.5-38.1-2.5-67.9-35.6-67.9-75.3zM225.6 292c-.1.1-.2.2-.4.1-.2 0-.3-.2-.4-.2l-23.3-35 7.5-7.9 35.4 24.2-18.8 18.8zm30.5-29l-40.6-27.8v-14c10.5 5.7 22.3 9.2 34.8 10 2 .1 3.9.2 5.9.2 14.3 0 28.1-3.4 40.5-9.9v13.7L256.1 263zm31.3 28.9c0 .1-.1.2-.4.2-.2 0-.4-.1-.4-.1l-18.8-18.8 35.4-24.2 7.5 7.9-23.3 35zm136.9-6.3l-17-17c.3-1.3.5-2.8.5-4.5v-3.2c4.7 1.5 9.7 2.5 14.9 2.6h1.7c5.7 0 11.2-.9 16.5-2.5v3c0 1.5.2 3 .5 4.4l-17.1 17.2zm28.3-48.5c-7.9 7.7-18.5 11.8-29.5 11.4-21.7-.7-39.4-19.8-39.4-42.6v-14c0-1.2-.3-2.3-.8-3.4l-4.6-9.3c-1.7-3.4-2.6-7.2-2.6-11v-.4c0-18 14.6-32.6 32.6-32.6H473v31.1c0 5-1.2 10.1-3.4 14.6l-3.8 7.6c-.5 1-.8 2.2-.8 3.4v16c-.1 11.2-4.5 21.5-12.4 29.2z"/>
    <path d="M472.4 312.7c-4.1 0-7.5 3.4-7.5 7.5v48.1c0 4.1 3.4 7.5 7.5 7.5s7.5-3.4 7.5-7.5v-48.1c0-4.1-3.3-7.5-7.5-7.5z"/>
    <path d="M39.6 322.7c-4.1 0-7.5 3.4-7.5 7.5v38.2c0 4.1 3.4 7.5 7.5 7.5s7.5-3.4 7.5-7.5v-38.2c0-4.2-3.4-7.5-7.5-7.5z"/>
    <path d="M317.5 90.4C289.2 62 229.8 67.5 205.6 71.1c-7.6 1.1-13.2 7.6-13.2 15.3v17.3c0 4.1 3.4 7.5 7.5 7.5s7.5-3.4 7.5-7.5V86.5c0-.3.2-.5.4-.5 9.7-1.5 28.9-3.7 48.7-2.4 23.4 1.6 40.3 7.4 50.3 17.4 2.9 2.9 7.7 2.9 10.6 0 3.1-2.9 3.1-7.7.1-10.6z"/>
    <path d="M167.9 328.8c-4.1 0-7.5 3.4-7.5 7.5v32.1c0 4.1 3.4 7.5 7.5 7.5s7.5-3.4 7.5-7.5v-32.1c0-4.2-3.4-7.5-7.5-7.5z"/>
    <path d="M344.3 328.8c-4.1 0-7.5 3.4-7.5 7.5v32.1c0 4.1 3.4 7.5 7.5 7.5s7.5-3.4 7.5-7.5v-32.1c0-4.2-3.4-7.5-7.5-7.5z"/>
</symbol></svg>
