<?xml version="1.0" encoding="UTF-8"?>
<svg width="400px" height="80px" viewBox="0 0 400 80" version="1.1" xmlns="http://www.w3.org/2000/svg" xmlns:xlink="http://www.w3.org/1999/xlink">
    <!-- Generator: Sketch 52.1 (67048) - http://www.bohemiancoding.com/sketch -->
    <title>svc-edge-ics</title>
    <desc>Created with Sketch.</desc>
    <g id="svc-edge-ics" stroke="none" stroke-width="1" fill="none" fill-rule="evenodd">
        <g id="1" transform="translate(2.000000, 1.000000)" fill="#46B281">
            <g id="Group">
                <path d="M45.5,62.4 L1.3,62.4 C0.52,62.4 0,61.88 0,61.1 L0,22.1 C0,21.84 0.26,21.32 0.26,21.06 L21.06,0.26 C21.32,0.26 21.84,0 22.1,0 L45.5,0 C46.28,0 46.8,0.52 46.8,1.3 L46.8,61.1 C46.8,61.88 46.28,62.4 45.5,62.4 Z M2.6,59.8 L44.2,59.8 L44.2,2.6 L22.62,2.6 L2.6,22.62 L2.6,59.8 Z" id="Shape" fill-rule="nonzero"></path>
                <path d="M22.1,23.4 L1.3,23.4 C0.52,23.4 0,22.88 0,22.1 C0,21.32 0.52,20.8 1.3,20.8 L20.8,20.8 L20.8,1.3 C20.8,0.52 21.32,0 22.1,0 C22.88,0 23.4,0.52 23.4,1.3 L23.4,22.1 C23.4,22.88 22.88,23.4 22.1,23.4 Z" id="Path"></path>
            </g>
            <path d="M53.3,70.2 L6.5,70.2 C5.72,70.2 5.2,69.68 5.2,68.9 L5.2,61.1 C5.2,60.32 5.72,59.8 6.5,59.8 C7.28,59.8 7.8,60.32 7.8,61.1 L7.8,67.6 L52,67.6 L52,7.8 L45.5,7.8 C44.72,7.8 44.2,7.28 44.2,6.5 C44.2,5.72 44.72,5.2 45.5,5.2 L53.3,5.2 C54.08,5.2 54.6,5.72 54.6,6.5 L54.6,68.9 C54.6,69.68 54.08,70.2 53.3,70.2 Z" id="Path"></path>
            <path d="M61.1,78 L11.7,78 C10.92,78 10.4,77.48 10.4,76.7 L10.4,68.9 C10.4,68.12 10.92,67.6 11.7,67.6 C12.48,67.6 13,68.12 13,68.9 L13,75.4 L59.8,75.4 L59.8,13 L53.3,13 C52.52,13 52,12.48 52,11.7 C52,10.92 52.52,10.4 53.3,10.4 L61.1,10.4 C61.88,10.4 62.4,10.92 62.4,11.7 L62.4,76.7 C62.4,77.48 61.88,78 61.1,78 Z" id="Path"></path>
        </g>
        <g id="2" transform="translate(102.000000, 1.000000)" fill="#46B281" fill-rule="nonzero">
            <path d="M14.625,35.75 L8.125,35.75 C7.15,35.75 6.5,36.4 6.5,37.375 L6.5,50.375 C6.5,51.35 7.15,52 8.125,52 L14.625,52 C15.6,52 16.25,51.35 16.25,50.375 L16.25,37.375 C16.25,36.4 15.6,35.75 14.625,35.75 Z M13,48.75 L9.75,48.75 L9.75,39 L13,39 L13,48.75 Z M14.625,55.25 L8.125,55.25 C7.15,55.25 6.5,55.9 6.5,56.875 L6.5,69.875 C6.5,70.85 7.15,71.5 8.125,71.5 L14.625,71.5 C15.6,71.5 16.25,70.85 16.25,69.875 L16.25,56.875 C16.25,55.9 15.6,55.25 14.625,55.25 Z M13,68.25 L9.75,68.25 L9.75,58.5 L13,58.5 L13,68.25 Z M30.875,55.25 L24.375,55.25 C23.4,55.25 22.75,55.9 22.75,56.875 L22.75,69.875 C22.75,70.85 23.4,71.5 24.375,71.5 L30.875,71.5 C31.85,71.5 32.5,70.85 32.5,69.875 L32.5,56.875 C32.5,55.9 31.85,55.25 30.875,55.25 Z M29.25,68.25 L26,68.25 L26,58.5 L29.25,58.5 L29.25,68.25 Z M43.875,32.5 L50.375,32.5 C51.35,32.5 52,31.85 52,30.875 L52,17.875 C52,16.9 51.35,16.25 50.375,16.25 L43.875,16.25 C42.9,16.25 42.25,16.9 42.25,17.875 L42.25,30.875 C42.25,31.85 42.9,32.5 43.875,32.5 Z M45.5,19.5 L48.75,19.5 L48.75,29.25 L45.5,29.25 L45.5,19.5 Z M30.875,35.75 L24.375,35.75 C23.4,35.75 22.75,36.4 22.75,37.375 L22.75,50.375 C22.75,51.35 23.4,52 24.375,52 L30.875,52 C31.85,52 32.5,51.35 32.5,50.375 L32.5,37.375 C32.5,36.4 31.85,35.75 30.875,35.75 Z M29.25,48.75 L26,48.75 L26,39 L29.25,39 L29.25,48.75 Z M76.7,13 L34.45,0 C33.8,0 33.475,0 33.15,0.325 C32.825,0.65 32.5,0.975 32.5,1.625 L32.5,21.125 L0.975,32.5 C0.325,32.825 5.68434189e-14,33.475 5.68434189e-14,34.125 L5.68434189e-14,76.375 C5.68434189e-14,77.35 0.65,78 1.625,78 L76.375,78 C77.35,78 78,77.35 78,76.375 L78,14.625 C78,13.975 77.675,13.325 76.7,13 Z M35.75,74.75 L3.25,74.75 L3.25,35.1 L34.775,23.725 L35.75,23.4 L35.75,74.75 Z M74.75,74.75 L39,74.75 L39,21.125 C39,20.8 39,20.475 38.675,20.475 C38.675,20.15 38.35,20.15 38.025,19.825 C37.7,19.5 37.05,19.5 36.4,19.5 L35.425,19.825 L35.425,3.575 L74.425,15.6 L74.425,74.75 L74.75,74.75 Z M43.875,52 L50.375,52 C51.35,52 52,51.35 52,50.375 L52,37.375 C52,36.4 51.35,35.75 50.375,35.75 L43.875,35.75 C42.9,35.75 42.25,36.4 42.25,37.375 L42.25,50.375 C42.25,51.35 42.9,52 43.875,52 Z M45.5,39 L48.75,39 L48.75,48.75 L45.5,48.75 L45.5,39 Z M43.875,71.5 L50.375,71.5 C51.35,71.5 52,70.85 52,69.875 L52,56.875 C52,55.9 51.35,55.25 50.375,55.25 L43.875,55.25 C42.9,55.25 42.25,55.9 42.25,56.875 L42.25,69.875 C42.25,70.85 42.9,71.5 43.875,71.5 Z M45.5,58.5 L48.75,58.5 L48.75,68.25 L45.5,68.25 L45.5,58.5 Z M60.125,71.5 L66.625,71.5 C67.6,71.5 68.25,70.85 68.25,69.875 L68.25,56.875 C68.25,55.9 67.6,55.25 66.625,55.25 L60.125,55.25 C59.15,55.25 58.5,55.9 58.5,56.875 L58.5,69.875 C58.5,70.85 59.15,71.5 60.125,71.5 Z M61.75,58.5 L65,58.5 L65,68.25 L61.75,68.25 L61.75,58.5 Z M60.125,32.5 L66.625,32.5 C67.6,32.5 68.25,31.85 68.25,30.875 L68.25,17.875 C68.25,16.9 67.6,16.25 66.625,16.25 L60.125,16.25 C59.15,16.25 58.5,16.9 58.5,17.875 L58.5,30.875 C58.5,31.85 59.15,32.5 60.125,32.5 Z M61.75,19.5 L65,19.5 L65,29.25 L61.75,29.25 L61.75,19.5 Z M60.125,52 L66.625,52 C67.6,52 68.25,51.35 68.25,50.375 L68.25,37.375 C68.25,36.4 67.6,35.75 66.625,35.75 L60.125,35.75 C59.15,35.75 58.5,36.4 58.5,37.375 L58.5,50.375 C58.5,51.35 59.15,52 60.125,52 Z M61.75,39 L65,39 L65,48.75 L61.75,48.75 L61.75,39 Z" id="Shape"></path>
        </g>
        <g id="3" transform="translate(202.000000, 1.000000)" fill="#46B281">
            <path d="M14.625,70.2 C13.845,70.2 13.325,69.68 13.325,68.9 L13.325,61.1 C13.325,60.32 13.845,59.8 14.625,59.8 C15.405,59.8 15.925,60.32 15.925,61.1 L15.925,68.9 C15.925,69.68 15.405,70.2 14.625,70.2 Z" id="Path"></path>
            <path d="M60.385,23.66 C59.605,23.66 58.825,23.4 58.045,23.14 L32.045,10.14 C31.785,9.88 31.525,9.62 31.265,9.1 C31.005,8.58 31.265,8.32 31.525,8.06 L39.325,0.26 C40.105,0 40.625,0 41.145,0 L64.545,10.4 C65.065,10.66 65.325,11.18 65.325,11.7 L65.325,19.5 C65.325,21.06 64.545,22.1 63.245,23.14 C62.465,23.4 61.425,23.66 60.385,23.66 Z M34.905,8.84 L59.345,21.06 C60.125,21.32 61.165,21.32 61.945,20.8 C62.205,20.54 62.725,20.28 62.725,19.5 L62.725,12.48 L40.885,2.86 L34.905,8.84 Z" id="Shape" fill-rule="nonzero"></path>
            <path d="M14.625,78 C8.125,78 2.925,72.8 2.925,66.3 C2.925,61.36 6.045,56.94 10.725,55.38 C10.985,55.38 11.505,55.38 11.765,55.38 C12.025,55.38 12.285,55.9 12.545,56.16 C12.805,56.68 13.065,57.2 13.325,57.72 C14.625,60.06 17.225,59.8 19.045,58.76 L20.865,57.72 C21.385,57.46 21.905,57.46 22.425,57.98 C24.765,60.32 26.325,63.18 26.325,66.56 C26.325,72.8 21.125,78 14.625,78 Z M10.465,58.24 C7.605,59.8 5.525,62.92 5.525,66.3 C5.525,71.24 9.685,75.4 14.625,75.4 C19.565,75.4 23.725,71.24 23.725,66.3 C23.725,63.96 22.945,61.88 21.385,60.32 L20.345,60.84 C16.965,62.92 12.805,62.14 10.725,59.28 C10.725,59.02 10.465,58.5 10.465,58.24 Z" id="Shape" fill-rule="nonzero"></path>
            <path d="M16.445,62.14 C14.365,62.14 12.285,61.1 10.985,59.28 C9.945,57.72 9.425,55.9 9.685,54.08 L1.885,41.08 C0.065,38.74 0.065,36.14 1.885,33.28 L9.685,21.58 C10.465,20.02 10.985,18.98 12.805,18.2 L34.905,9.1 C35.165,8.84 35.685,8.84 35.945,9.1 L58.045,20.8 C58.565,21.06 58.825,21.84 58.565,22.62 C58.565,22.62 54.925,29.9 48.165,40.82 C41.665,51.48 32.305,54.08 30.745,54.34 L20.605,60.84 C19.045,61.62 17.745,62.14 16.445,62.14 Z M21.125,28.6 C21.385,28.6 21.905,28.86 22.165,29.12 C22.165,29.12 25.285,32.5 30.225,32.5 C30.745,32.5 31.265,32.76 31.525,33.28 C31.785,33.8 31.525,34.32 31.265,34.58 C28.405,37.44 26.325,41.86 26.325,42.64 C26.325,43.42 25.805,43.94 25.025,43.94 C24.245,44.2 18.785,47.06 14.105,50.18 C13.325,50.7 12.545,51.74 12.285,52.78 C12.025,54.34 12.285,56.16 13.065,57.46 C14.625,60.06 17.225,59.8 19.045,58.76 L29.445,52.26 C29.705,52.26 29.705,52 29.965,52 C29.965,52 39.585,50.18 46.085,39.52 C51.285,30.94 54.665,24.96 55.965,22.62 L35.425,11.96 L13.845,20.8 C12.805,21.06 12.545,21.58 11.765,22.62 L3.965,34.58 C2.665,36.66 2.665,37.96 3.965,39.52 L10.465,50.44 C10.985,49.4 11.765,48.88 12.545,48.36 C12.545,48.36 13.845,47.58 15.665,46.54 C15.405,45.24 14.885,44.2 14.625,44.2 C13.845,44.2 13.325,43.68 13.325,42.9 C13.325,40.04 11.505,38.74 11.245,38.74 C10.725,38.48 10.465,37.7 10.725,37.18 C10.985,36.66 11.505,36.4 12.025,36.4 C13.325,36.14 19.565,31.2 19.825,29.9 C19.825,29.38 20.085,28.86 20.605,28.6 C20.865,28.6 20.865,28.6 21.125,28.6 Z M15.925,41.86 C16.965,42.38 17.745,43.94 18.005,44.98 C20.085,43.68 22.425,42.38 23.725,41.86 C24.245,40.04 25.545,37.18 27.365,34.84 C24.505,34.32 22.425,33.02 21.385,31.98 C19.825,34.06 16.705,36.66 14.105,38.22 C14.885,39 15.665,40.3 15.925,41.86 Z" id="Shape" fill-rule="nonzero"></path>
        </g>
        <g id="4" transform="translate(302.000000, 15.000000)" fill="#46B281">
            <g id="Group" transform="translate(0.000000, 19.200000)" fill-rule="nonzero">
                <path d="M41.92,44.8 C40.96,44.8 40.32,44.8 39.68,44.48 L14.08,39.68 C13.12,39.68 12.8,38.72 12.8,38.08 L16,20.48 C16,20.48 16,20.16 16,20.16 C18.56,15.04 24.64,13.12 29.44,12.8 L40.32,1.92 C42.24,0.32 45.12,-1.31006317e-14 47.36,1.92 L48,2.56 C50.24,4.8 50.88,8 49.28,10.24 L42.88,18.24 C42.56,18.56 42.24,19.2 41.6,19.52 C40.96,20.16 40,21.12 40,21.76 L40,23.36 C40,24.32 40.32,25.28 41.28,26.24 C43.2,27.84 46.4,28.48 49.28,28.16 L57.6,28.16 L68.8,28.16 C68.8,28.16 68.8,28.16 68.8,28.16 C69.44,28.16 70.08,28.48 70.4,29.44 C70.72,30.08 70.4,30.72 69.76,31.36 L55.36,40.96 C53.44,43.2 46.08,44.8 41.92,44.8 Z M16.32,36.8 L40.32,41.28 C42.88,41.92 51.84,40 53.44,38.4 L63.68,31.68 L57.6,32 L49.6,32 C46.08,32.64 41.92,31.36 39.36,29.44 C37.76,28.16 36.8,26.24 36.8,24 L36.8,22.4 C36.8,20.48 38.08,18.88 39.36,17.92 C39.68,17.6 40,17.28 40.32,16.64 L46.72,8.64 C47.36,7.68 46.72,6.08 45.76,4.8 L45.12,4.16 C44.16,3.52 42.88,3.84 42.56,4.48 L31.36,15.68 C31.04,16 30.72,16 30.08,16 C25.92,16 20.8,17.6 18.88,21.44 L16.32,36.8 Z" id="Shape"></path>
                <path d="M1.6,44.48 C0.64,44.48 0,43.84 0,42.88 L0,14.08 C0,13.76 0.32,13.12 0.32,12.8 C0.64,12.8 1.28,12.8 1.6,12.8 C3.84,12.8 15.36,13.12 18.56,16.32 C19.2,16.64 19.2,16.96 19.2,17.6 C18.24,27.84 16,38.4 16,38.4 C16,38.72 15.68,39.04 15.36,39.36 C15.04,39.68 7.04,44.48 1.6,44.48 Z M3.2,16 L3.2,41.28 C6.4,40.64 10.88,38.4 13.12,37.12 C13.76,34.88 15.36,26.24 16,17.92 C13.44,16.64 7.68,16 3.2,16 Z" id="Shape"></path>
            </g>
            <g id="Group" transform="translate(28.800000, 0.000000)">
                <path d="M57.6,44.8 L20.8,44.8 C19.84,44.8 19.2,44.16 19.2,43.2 C19.2,42.24 19.84,41.6 20.8,41.6 L57.6,41.6 C61.12,41.6 64,38.72 64,35.2 L64,9.6 C64,6.08 61.12,3.2 57.6,3.2 L9.6,3.2 C6.08,3.2 3.2,6.08 3.2,9.6 L3.2,20.8 C3.2,21.76 2.56,22.4 1.6,22.4 C0.64,22.4 0,21.76 0,20.8 L0,9.6 C0,4.16 4.16,0 9.6,0 L57.6,0 C63.04,0 67.2,4.48 67.2,9.6 L67.2,35.2 C67.2,40.32 62.72,44.8 57.6,44.8 Z" id="Path"></path>
                <path d="M65.6,16 L1.6,16 C0.64,16 0,15.36 0,14.4 C0,13.44 0.64,12.8 1.6,12.8 L65.6,12.8 C66.56,12.8 67.2,13.44 67.2,14.4 C67.2,15.36 66.56,16 65.6,16 Z" id="Path"></path>
                <path d="M46.4,35.2 C46.08,35.2 45.44,35.2 45.12,34.88 C44.48,34.24 44.48,33.28 45.12,32.64 L57.92,19.84 C58.56,19.2 59.52,19.2 60.16,19.84 C60.8,20.48 60.8,21.44 60.16,22.08 L47.36,34.88 C47.36,35.2 46.72,35.2 46.4,35.2 Z" id="Path"></path>
                <path d="M46.4,22.4 C45.44,22.4 44.8,21.76 44.8,20.8 C44.8,19.84 45.44,19.2 46.4,19.2 C47.36,19.2 48,19.84 48,20.8 C48,21.76 47.36,22.4 46.4,22.4 Z" id="Path"></path>
                <path d="M59.2,35.2 C58.24,35.2 57.6,34.56 57.6,33.6 C57.6,32.64 58.24,32 59.2,32 C60.16,32 60.8,32.64 60.8,33.6 C60.8,34.56 60.16,35.2 59.2,35.2 Z" id="Path"></path>
                <path d="M36.8,25.6 L27.2,25.6 C26.24,25.6 25.6,24.96 25.6,24 C25.6,23.04 26.24,22.4 27.2,22.4 L36.8,22.4 C37.76,22.4 38.4,23.04 38.4,24 C38.4,24.96 37.76,25.6 36.8,25.6 Z" id="Path"></path>
                <path d="M37.12,35.2 L27.2,35.2 C26.24,35.2 25.6,34.56 25.6,33.6 C25.6,32.64 26.24,32 27.2,32 C27.2,32 27.2,32 27.2,32 L37.12,32 C38.08,32 38.72,32.64 38.72,33.6 C38.72,34.56 37.76,35.2 37.12,35.2 Z" id="Path"></path>
            </g>
        </g>
    </g>
</svg>