<svg height="90" viewBox="0 0 280 90" width="280" xmlns="http://www.w3.org/2000/svg"><g fill="none" transform="translate(1 1.5625)"><path d="m0 16.5352083h67.7769792l-33.88125-16.5352083z" fill="#44b97b"/><g fill="#034694"><path d="m83.5158333 20.0246875v15.9270833h5.7916667c4.5319792 0 5.646875-2.8958333 5.646875-4.6333333 0-2.0415625-.9701042-5.1401042-5.646875-5.1401042h-2.5628125v-3.3446875h6.95v-2.8089583zm3.2288542 8.6875h1.998125c1.7954167 0 2.8958333.7673958 2.8958333 2.3890625s-1.0425 2.3745833-2.8958333 2.3745833h-1.998125z"/><path d="m104.467188 30.58c-1.708542 0-4.18448 0-4.18448 1.91125 0 .8397917.52125 1.4479167 1.882292 1.4479167s2.895833-.5936459 2.895833-3.1419792v-.2895833zm-5.9075005-5.7916667c1.3810629-.5471251 2.8588205-.8081955 4.3437505-.7673958 4.763645 0 5.19802 2.7365625 5.19802 4.5175v7.4278125h-3.055104v-1.7664583c-.729767 1.3263632-2.187883 2.0811526-3.692187 1.91125-2.9827087 0-4.1844795-1.7664584-4.1844795-3.5908334s.8542708-3.8948958 5.7916665-3.8948958h1.7375.275104v-.5067708c-.086875-1.9546875-2.24427-2.0126042-2.635208-2.0126042-1.326678-.0040021-2.6289477.3566264-3.7645833 1.0425z"/><path d="m114.110313 24.15125v4.4451042h4.966354v-4.4451042h3.084062v11.7715625h-3.084062v-5.0532292h-4.966354v5.0532292h-3.084063v-11.7715625z"/><path d="m128.198542 24.15125v5.3428125h.115833l3.779063-5.3428125h3.446041l-4.358229 5.56 4.966354 6.2115625h-3.880416l-3.952813-5.6323958h-.115833v5.6323958h-3.084063v-11.7715625z"/><path d="m95.7072917 42.5397917v6.7907291h.0723958l5.3428125-6.7907291h3.8225l-6.168125 7.1961458 6.269479 8.7019792h-4.083125l-5.1835415-7.905625h-.0723958v7.905625h-3.2288542v-7.905625h-.0579167l-5.1835416 7.905625h-4.0976042l6.2839583-8.7019792-6.1826041-7.1961458h3.8369791l5.3428125 6.7907291h.0579167v-6.7907291z"/><path d="m109.766563 46.6663542v6.1826041l-.086875 2.0994792h.043437l5.067708-8.2820833h3.460521v11.7715625h-3.098541v-6.0957292l.086875-2.2008333h-.057917l-5.2125 8.2965625h-3.286771v-11.7715625z"/><path d="m131.52875 46.6663542v11.7715625h-3.084063v-9.4983334h-3.63427v2.60625c0 5.7916667-.550209 7.0803125-3.663229 7.0803125-.44235.0198147-.884465-.0440463-1.303126-.1882291l.130313-2.3745834c.170547.067406.352346.1018004.535729.1013542 1.780938 0 1.549271-2.0994792 1.549271-4.6188542v-4.8794791z"/><path d="m137.581042 46.6663542v6.1826041l-.086875 2.0994792h.028958l5.082187-8.2820833h3.431563v11.7715625h-3.084062v-6.0957292l.101354-2.2008333h-.072396l-5.198021 8.2965625h-3.30125v-11.7715625z"/><path d="m152.089167 46.6663542v9.4983333h3.793541v-9.4983333h3.098542v9.4983333h3.779062v-9.4983333h3.098542v9.4983333h1.969167v5.3428125h-2.837917v-3.0695833h-15.985v-11.7715625z"/><path d="m172.736458 46.6663542v4.4595833h4.951875v-4.4595833h3.098542v11.7715625h-3.098542v-5.0532292h-4.951875v5.0532292h-3.084062v-11.7715625z"/><path d="m183.045625 52.5448958c0 3.350585 2.716186 6.0667709 6.066771 6.0667709s6.066771-2.7161859 6.066771-6.0667709-2.716186-6.0667708-6.066771-6.0667708-6.066771 2.7161858-6.066771 6.0667708zm3.228854 0c0-2.7220833 1.447917-3.8225 2.895834-3.8225 1.447916 0 2.895833 1.1004167 2.895833 3.8225 0 2.7220834-1.447917 3.8514584-2.895833 3.8514584-1.447917 0-2.895834-1.1148959-2.895834-3.8514584z"/><path d="m205.647604 46.6663542v2.3890625h-5.111146v9.3825h-3.084062v-11.7715625z"/><path d="m206.675625 52.5448958c0 3.350585 2.716186 6.0667709 6.066771 6.0667709s6.066771-2.7161859 6.066771-6.0667709-2.716186-6.0667708-6.066771-6.0667708-6.066771 2.7161858-6.066771 6.0667708zm3.228854 0c0-2.7220833 1.447917-3.8225 2.895834-3.8225 1.447916 0 2.895833 1.1004167 2.895833 3.8225 0 2.7220834-1.447917 3.8514584-2.895833 3.8514584-1.447917 0-2.852396-1.1148959-2.852396-3.8514584z"/><path d="m90.4803125 77.2608333c-2.1573958 0-3.9383333-1.3465625-3.9383333-4.34375s1.7809375-4.34375 3.9383333-4.34375h.7384375v8.6875zm3.909375-13.1760416h-3.1709375v2.0415625h-.9411458c-2.5087796-.1156906-4.8781199 1.1568589-6.1671021 3.3122902s-1.2889822 4.8448841 0 7.0003153c1.2889822 2.1554313 3.6583225 3.4279809 6.1671021 3.3122903h.9411458v2.0560417h3.2288542v-2.0560417h.955625c2.5087795.1156906 4.8781198-1.156859 6.1671018-3.3122903 1.288982-2.1554312 1.288982-4.844884 0-7.0003153s-3.6583223-3.4279808-6.1671018-3.3122902h-.955625zm.6805208 4.5319791c2.1573959 0 3.9383334 1.3465625 3.9383334 4.34375s-1.7809375 4.34375-3.9383334 4.34375h-.6805208v-8.6875z"/><path d="m108.231771 69.1235417v6.1826041l-.101354 2.1139584h.043437l5.067708-8.2965625h3.460521v11.7715625h-3.098541v-6.0957292l.101354-2.2008333h-.086875l-5.183542 8.2965625h-3.30125v-11.7715625z"/><path d="m122.739896 69.1235417v4.4451041h4.951875v-4.4451041h3.084062v11.7715625h-3.084062v-5.0532292h-4.951875v5.0532292h-3.084063v-11.7715625z"/><path d="m140.361042 75.5522917c-1.694063 0-4.17 0-4.17 1.91125 0 .8397916.52125 1.4479166 1.882291 1.4479166 1.361042 0 2.808959-.5936458 2.808959-3.1419791v-.2895834zm-5.9075-5.7916667c1.379829-.5514662 2.858491-.8126964 4.34375-.7673958 4.778125 0 5.2125 2.7365625 5.2125 4.5175v7.4278125h-3.055104v-1.7375c-.736365 1.3318327-2.211971 2.0782481-3.721146 1.8822916-2.982709 0-4.184479-1.7519791-4.184479-3.5908333 0-1.6071875.85427-3.8804167 5.791666-3.8804167h1.708542.275104v-.4922916c-.101354-1.9546875-2.244271-2.0270834-2.635208-2.0270834-1.332363.0021484-2.638918.3675834-3.779063 1.0569792z"/><path d="m150.018646 69.1235417v4.4451041h4.951875v-4.4451041h3.084062v11.7715625h-3.084062v-5.0532292h-4.951875v5.0532292h-3.098542v-11.7715625z"/><path d="m169.116667 71.4836458c-.606673-.224242-1.250129-.3323033-1.896771-.3185416-1.003033.005688-1.959117.4256741-2.641853 1.1605068-.682737.7348327-1.031411 1.7191648-.96346 2.7199098-.098553.9763453.222045 1.9486246.882006 2.6748578.659961.7262331 1.597221 1.1381245 2.578515 1.1331631.811589-.0057243 1.613906-.1730786 2.360104-.4922917l.101354 2.25875c-.978816.3094465-1.999582.4657361-3.026145.4633333-2.232419.0614888-4.318113-1.108489-5.429389-3.0456363-1.111277-1.9371472-1.068426-4.3281994.111546-6.2242848s3.306248-2.99058 5.53503-2.8491414c.882403-.0004584 1.761872.1015795 2.620729.3040625z"/><path d="m174.61875 69.1235417v6.1826041l-.101354 2.1139584h.057916l5.067709-8.2965625h3.446042v11.7715625h-3.084063v-6.0957292l.086875-2.2008333h-.072396l-5.198021 8.2965625h-3.28677v-11.7715625z"/><path d="m189.141354 85.7601042v-4.5319792-1.9257292c.73503 1.1733426 2.049001 1.8552769 3.431563 1.7809375 2.562812 0 5.082187-1.7230208 5.082187-6.0522916 0-4.3292709-2.273229-6.0667709-4.951875-6.0667709-1.587763-.0183768-3.05903.8310717-3.836979 2.2153125v-2.0560416h-2.707604v16.6365625zm0-10.7435417c0-2.5048958 1.361042-3.6197917 2.60625-3.6197917 1.245209 0 2.620729 1.1148959 2.620729 3.6197917s-1.447916 3.6053125-2.620729 3.6053125c-1.172812 0-2.60625-1.1148958-2.60625-3.6053125z"/><path d="m199.175417 75.0165625c0 3.350585 2.716185 6.0667708 6.066771 6.0667708 3.350585 0 6.06677-2.7161858 6.06677-6.0667708s-2.716185-6.0667708-6.06677-6.0667708c-3.350586 0-6.066771 2.7161858-6.066771 6.0667708zm3.228854 0c0-2.7365625 1.447917-3.8514583 2.895833-3.8514583 1.447917 0 2.895834 1.1148958 2.895834 3.8514583s-1.447917 3.8369792-2.895834 3.8369792c-1.447916 0-2.895833-1.129375-2.895833-3.8369792z"/><path d="m216.66625 75.755h1.969167c.723958 0 2.070521.086875 2.070521 1.5492708 0 1.4623959-1.447917 1.5492709-2.056042 1.5492709h-1.969167zm-3.084062-6.6314583v11.7715625h5.950937c2.649688 0 4.34375-1.1872917 4.34375-3.30125.047912-.7490346-.215579-1.4846134-.728192-2.0328622s-1.228851-.8605096-1.979412-.8629712c1.285518-.2039561 2.217203-1.3344005 2.171875-2.6352083 0-1.2596875-.651563-2.8958333-4.039688-2.8958333zm3.084062 2.0415625h1.969167c.593646 0 1.751979.0723958 1.751979 1.2741666 0 1.2017709-1.143854 1.2741667-1.751979 1.2741667h-1.91125z"/><path d="m227.134688 72.1496875c1.140144-.6893958 2.446699-1.0548308 3.779062-1.0569792.376458 0 2.533854 0 2.620729 2.0270834v.5067708h-.275104-1.723021c-4.995312 0-5.791666 2.2732292-5.791666 3.8804167 0 1.8388541 1.20177 3.5908333 4.17 3.5908333 1.505051.1739639 2.965305-.5819319 3.692187-1.91125v1.7375h3.026146v-7.4567708c0-1.7809375-.448854-4.5175-5.2125-4.5175-1.485439-.0478143-2.964612.2135062-4.34375.7673958zm6.42875 3.4026042v.2895833c0 2.5483333-1.534792 3.1419792-2.808959 3.1419792-1.274166 0-1.882291-.6805209-1.882291-1.4479167 0-1.8822917 2.461458-1.91125 4.17-1.91125z"/><path d="m242.699792 69.1235417v4.4451041h4.951875v-4.4451041h3.084062v11.7715625h-3.084062v-5.0532292h-4.951875v5.0532292h-3.098542v-11.7715625z"/><path d="m256.788021 69.1235417v6.1826041l-.101354 2.1139584h.057916l5.05323-8.2965625h3.46052v11.7715625h-3.084062v-6.0957292l.072396-2.2008333h-.057917l-5.2125 8.2965625h-3.286771v-11.7715625z"/><path d="m278 69.1235417h-6.095729c-1.021862-.0960421-2.038835.2276811-2.817145.8967545-.77831.6690735-1.251002 1.6259398-1.309418 2.6506413-.059595 1.6495605 1.088104 3.0979929 2.707605 3.4170833l-2.895834 4.8070834h3.677709l2.316666-4.430625h1.447917v4.430625h2.968229zm-3.084062 2.0415625v3.3157291h-2.056042c-.465805.0316568-.924752-.1254807-1.273401-.4359967-.34865-.310516-.557663-.7482799-.579932-1.2146283.001545-.4747377.203925-.9266482.557071-1.2439277.353146-.3172794.824069-.47029 1.296262-.4211764z"/><path d="m30.507604 6.356354h6.77625v6.77625h-6.77625z"/></g><path d="m22.0228125 80.9240625 15.2610417-3.5039583v-33.6495834l-15.2610417-3.5039583z" fill="#44b97b"/><path d="m3.388125 19.9233333v61.0007292h18.6346875v-40.6719792h23.7313542v40.6719792h18.6346875v-61.0007292z" fill="#034694"/></g></svg>