<svg height="30" viewBox="0 0 50 30" width="50" xmlns="http://www.w3.org/2000/svg"><path d="m13.5977337 11.1926346c4.9064249 0 8.8838527 3.977507 8.8838527 8.8838527 0 4.9063456-3.9774278 8.8838526-8.8838527 8.8838526-4.90642492 0-8.88385268-3.977507-8.88385268-8.8838526l-.03966006-1.2691219c0-9.81284982 7.95485554-17.76770534 17.76770534-17.76770534v5.07648725c-3.3899036 0-6.5769858 1.32012464-8.9740396 3.71717847-.4614051.46148442-.8825156.95247592-1.2623796 1.46821532.4536317-.0713881.9185269-.1089065 1.3922266-.1089065zm22.8441926 0c4.9063457 0 8.8838527 3.977507 8.8838527 8.8838527 0 4.9063456-3.977507 8.8838526-8.8838527 8.8838526-4.9063456 0-8.8838526-3.977507-8.8838526-8.8838526l-.0396601-1.2691219c0-9.81284982 7.9547762-17.76770534 17.7677054-17.76770534v5.07648725c-3.3898244 0-6.5770652 1.32012464-8.9740397 3.71717847-.4614844.46148442-.8825949.95247592-1.2624589 1.46821532.4536317-.0713881.9185269-.1089065 1.3923059-.1089065z" fill="#46b281"/></svg>